<?xml version="1.0" encoding="utf-8"?>
<!-- Generator: Adobe Illustrator 18.1.1, SVG Export Plug-In . SVG Version: 6.00 Build 0)  -->
<!DOCTYPE svg PUBLIC "-//W3C//DTD SVG 1.1//EN" "http://www.w3.org/Graphics/SVG/1.1/DTD/svg11.dtd">
<svg version="1.1" xmlns="http://www.w3.org/2000/svg" xmlns:xlink="http://www.w3.org/1999/xlink" x="0px" y="0px"
	 viewBox="0 0 455 263.3" enable-background="new 0 0 455 263.3" xml:space="preserve">
<g id="Layer_1" display="none">
</g>
<g id="Layer_5" display="none">
	<rect x="-78.1" y="-74.1" display="inline" fill="#C9A885" width="616" height="419"/>
</g>
<g id="Layer_3" display="none">
	<path display="inline" fill="#6F1B08" d="M436.8,263.3H18.2C8.2,263.3,0,255.1,0,245.1V23.5C0,13.5,8.2,5.3,18.2,5.3h418.6
		c10.1,0,18.2,8.2,18.2,18.2v221.6C455,255.1,446.8,263.3,436.8,263.3z"/>
</g>
<g id="Layer_2" display="none">
	<polyline display="inline" fill="none" stroke="#C9A885" stroke-width="17.1402" stroke-miterlimit="10" points="245.7,-50 
		237.5,46.4 254.2,310 	"/>
	
		<line display="inline" fill="none" stroke="#C9A885" stroke-width="17.1402" stroke-miterlimit="10" x1="-62" y1="-35.2" x2="237.5" y2="46.4"/>
	<path display="inline" fill="none" stroke="#C9A885" stroke-width="17.1402" stroke-miterlimit="10" d="M44.5-58.5L30.6-8.3
		c0,0-6.9,29.4-9.4,36.7S14.3,48.8,9.8,57.8S-7.8,88.4-7.8,88.4"/>
	<polyline display="inline" fill="none" stroke="#C9A885" stroke-width="17.1402" stroke-miterlimit="10" points="85.3,-62.5 
		69.4,0.3 87.3,291.3 	"/>
	<path display="inline" fill="none" stroke="#C9A885" stroke-width="17.1402" stroke-miterlimit="10" d="M126.1-58.5
		c0,0-6.8,31.2-7.4,35.8c-1.4,9.8,6,37.6,6,37.6l12.1,231.9"/>
	<path display="inline" fill="none" stroke="#C9A885" stroke-width="17.1402" stroke-miterlimit="10" d="M-65.7,37l23.3,15.5
		c0,0,20.8,18.8,27.8,27.3s21.6,22.9,24.9,34.3s6.1,59.2,9,77.9c1.6,10.5,10.6,55.1,13.5,69s9.4,44.9,9.4,44.9"/>
	
		<line display="inline" fill="none" stroke="#C9A885" stroke-width="17.1402" stroke-miterlimit="10" x1="193" y1="244.7" x2="179" y2="30.5"/>
	<polyline display="inline" fill="none" stroke="#C9A885" stroke-width="17.1402" stroke-miterlimit="10" points="313,32.1 
		244.9,157.4 16.7,161.4 	"/>
	
		<line display="inline" fill="none" stroke="#C9A885" stroke-width="17.1402" stroke-miterlimit="10" x1="430.5" y1="290.9" x2="245.2" y2="187.8"/>
	<path display="inline" fill="none" stroke="#C9A885" stroke-width="17.1402" stroke-miterlimit="10" d="M287.7,297.3
		c0,0,104.5-190.6,106.9-195.1c2.4-4.5,5.3-13.9,3.3-26.9s3.3-26.1,12.7-41.6"/>
	
		<line display="inline" fill="none" stroke="#C9A885" stroke-width="17.1402" stroke-miterlimit="10" x1="251.8" y1="-51.6" x2="539.5" y2="106.7"/>
	
		<line display="inline" fill="none" stroke="#C9A885" stroke-width="17.1402" stroke-miterlimit="10" x1="400.3" y1="309.6" x2="472.2" y2="178.6"/>
	
		<line display="inline" fill="none" stroke="#C9A885" stroke-width="17.1402" stroke-miterlimit="10" x1="357.5" y1="61" x2="250.6" y2="255.7"/>
	
		<line display="inline" fill="none" stroke="#C9A885" stroke-width="17.1402" stroke-miterlimit="10" x1="30.6" y1="248.8" x2="249.8" y2="245.1"/>
	<path display="inline" fill="none" stroke="#C9A885" stroke-width="17.1402" stroke-miterlimit="10" d="M519.9,205.1
		c-1,0.3-42.6-24.7-58.9-34.5c-4-2.4-5.5-7.7-4.4-13.6c1.5-7.7,3.4-19,4.1-29.4c0.8-11.9-8.2-28.2-13.5-38.4s-11.4-17.1,3.7-43.7
		s49-89.8,49-89.8"/>
	
		<line display="inline" fill="none" stroke="#C9A885" stroke-width="17.1402" stroke-miterlimit="10" x1="167.7" y1="-69.1" x2="149" y2="22.3"/>
	
		<line display="inline" fill="none" stroke="#C9A885" stroke-width="17.1402" stroke-miterlimit="10" x1="371.1" y1="254.6" x2="453.8" y2="105.5"/>
	<path display="inline" fill="none" stroke="#C9A885" stroke-width="17.1402" stroke-miterlimit="10" d="M298.3-25.9
		c0,0-7.7,13.3-10.2,26.1c-1.2,6-1.2,16.1,4.5,19.6c5,3.1,64.9,41.2,64.9,41.2s13.9,0.4,22,2c7.6,1.5,61.6,9,61.6,9"/>
	<path display="inline" fill="#4BB7F7" d="M237,99.3c0-6.5-4.4-11.6-10.5-11.6c-6,0-10.5,5.1-10.5,11.6c0,6.5,3.8,8.6,6.1,12.6
		c2.1,3.6,4.3,11.2,4.4,11.5c0,0,0,0,0,0s0,0,0,0c0,0,0,0,0,0s0,0,0,0c0.1-0.3,2.3-7.9,4.4-11.5C233.2,107.9,237,105.8,237,99.3z"/>
	
		<rect x="178" y="175.8" transform="matrix(6.627569e-02 0.9978 -0.9978 6.627569e-02 411.4121 -69.0645)" display="inline" fill="none" width="129.2" height="19"/>
	
		<text transform="matrix(6.628000e-02 0.9978 -0.9978 6.628000e-02 237.938 138.7025)" display="inline" fill="#6F1B08" font-family="'HelveticaNeue-Bold'" font-size="15.582">Burnet Road</text>
	
		<rect x="60.2" y="80.3" transform="matrix(5.028947e-02 0.9987 -0.9987 5.028947e-02 208.1649 -39.3042)" display="inline" fill="none" width="129.2" height="19"/>
	
		<text transform="matrix(5.029000e-02 0.9987 -0.9987 5.029000e-02 120.2211 32.3449)" display="inline" fill="#6F1B08" font-family="'HelveticaNeue-Bold'" font-size="15.582">Shoalwood Ave</text>
	
		<rect x="85.7" y="17.4" transform="matrix(0.9651 0.262 -0.262 0.9651 12.3126 -38.425)" display="inline" fill="none" width="129.2" height="19"/>
	
		<text transform="matrix(0.9651 0.262 -0.262 0.9651 103.7531 16.0026)" display="inline" fill="#6F1B08" font-family="'HelveticaNeue-Bold'" font-size="15.582">Northland Dr</text>
	
		<rect x="50.9" y="153.5" transform="matrix(0.9998 -1.745494e-02 1.745494e-02 0.9998 -2.828 2.0413)" display="inline" fill="none" width="129.2" height="19"/>
	
		<text transform="matrix(0.9999 -1.745000e-02 1.745000e-02 0.9999 64.4653 165.5756)" display="inline" fill="#6F1B08" font-family="'HelveticaNeue-Bold'" font-size="15.582">Shoalmont Dr</text>
	
		<rect x="68.7" y="241.1" transform="matrix(0.9999 -1.647015e-02 1.647015e-02 0.9999 -4.1097 2.2297)" display="inline" fill="none" width="129.2" height="19"/>
	
		<text transform="matrix(0.9999 -1.647000e-02 1.647000e-02 0.9999 78.0505 253.0979)" display="inline" fill="#6F1B08" font-family="'HelveticaNeue-Bold'" font-size="15.582">Lawnmont Ave</text>
	
		<rect x="6.1" y="73" transform="matrix(6.099794e-02 0.9981 -0.9981 6.099794e-02 148.6839 6.935)" display="inline" fill="none" width="129.2" height="19"/>
	
		<text transform="matrix(6.100000e-02 0.9981 -0.9981 6.100000e-02 65.7646 28.1576)" display="inline" fill="#6F1B08" font-family="'HelveticaNeue-Bold'" font-size="15.582">Woodview Ave</text>
	
		<rect x="115" y="85.5" transform="matrix(6.680381e-02 0.9978 -0.9978 6.680381e-02 262.4022 -90.4302)" display="inline" fill="none" width="129.2" height="19"/>
	
		<text transform="matrix(6.680000e-02 0.9978 -0.9978 6.680000e-02 174.8678 49.3058)" display="inline" fill="#6F1B08" font-family="'HelveticaNeue-Bold'" font-size="15.582">Montview St</text>
	<path id="SVGID_x5F_1_x5F_" display="inline" fill="none" d="M-71,37.6l23.3,15.5c0,0,20.8,18.8,27.8,27.3s21.6,22.9,24.9,34.3
		s6.1,59.2,9,77.9c1.6,10.5,10.6,55.1,13.5,69c2.9,13.9,9.4,44.9,9.4,44.9"/>
	<text display="inline">	<textPath  xlink:href="#SVGID_x5F_1_x5F_" startOffset="29.7852%">
<tspan  fill="#6F1B08" font-family="'HelveticaNeue-Bold'" font-size="15.582">Shoal Creek Blvd</tspan>	</textPath>
</text>
	
		<rect x="222.2" y="78" transform="matrix(0.4768 -0.879 0.879 0.4768 73.0792 297.8513)" display="inline" fill="none" width="129.2" height="19"/>
	
		<text transform="matrix(0.4768 -0.879 0.879 0.4768 268.1716 125.0526)" display="inline" fill="#6F1B08" font-family="'HelveticaNeue-Bold'" font-size="15.582">Adams Ave</text>
	
		<rect x="258.3" y="120.2" transform="matrix(0.4824 -0.876 0.876 0.4824 53.4907 349.9638)" display="inline" fill="none" width="129.2" height="19"/>
	
		<text transform="matrix(0.4824 -0.876 0.876 0.4824 308.6667 158.7691)" display="inline" fill="#6F1B08" font-family="'HelveticaNeue-Bold'" font-size="15.582">Clay Ave</text>
	
		<rect x="301.7" y="151.8" transform="matrix(0.4815 -0.8764 0.8764 0.4815 48.5339 404.6313)" display="inline" fill="none" width="129.2" height="19"/>
	
		<text transform="matrix(0.4815 -0.8764 0.8764 0.4815 342.3248 208.2948)" display="inline" fill="#6F1B08" font-family="'HelveticaNeue-Bold'" font-size="15.582">Jeff Davis Ave</text>
	
		<rect x="342.7" y="184.8" transform="matrix(0.485 -0.8745 0.8745 0.485 39.8105 456.2943)" display="inline" fill="none" width="129.2" height="19"/>
	
		<text transform="matrix(0.485 -0.8745 0.8745 0.485 383.6459 240.2311)" display="inline" fill="#6F1B08" font-family="'HelveticaNeue-Bold'" font-size="15.582">Jim Hogg Ave</text>
	
		<rect x="254.3" y="223.4" transform="matrix(0.8738 0.4863 -0.4863 0.8738 153.4887 -125.6557)" display="inline" fill="none" width="129.2" height="19"/>
	
		<text transform="matrix(0.8738 0.4863 -0.4863 0.8738 281.9191 214.1379)" display="inline" fill="#6F1B08" font-family="'HelveticaNeue-Bold'" font-size="15.582">Houston St</text>
	
		<rect x="329.4" y="21.6" transform="matrix(0.8759 0.4824 -0.4824 0.8759 63.8642 -186.1944)" display="inline" fill="none" width="129.2" height="19"/>
	
		<text transform="matrix(0.8759 0.4824 -0.4824 0.8759 351.9209 9.7298)" display="inline" fill="#6F1B08" font-family="'HelveticaNeue-Bold'" font-size="15.582">W Koenig Ln</text>
	<path id="SVGID_x5F_2_x5F_" display="inline" fill="none" d="M294.2-21.9c0,0-7.7,13.3-10.2,26.1c-1.2,6-1.2,16.1,4.5,19.6
		c5,3.1,64.9,41.2,64.9,41.2s13.9,0.4,22,2c7.6,1.5,61.6,9,61.6,9"/>
	<text display="inline">	<textPath  xlink:href="#SVGID_x5F_2_x5F_" startOffset="15.5468%">
<tspan  fill="#6F1B08" font-family="'HelveticaNeue-Bold'" font-size="15.582">Ullrich Ave</tspan>	</textPath>
</text>
	<ellipse display="inline" fill="#B3DFFA" cx="226.5" cy="99.1" rx="4.4" ry="4.9"/>
</g>
<g id="Layer_4" display="none">
	<rect x="533.6" y="278.9" display="inline" fill="none" width="116" height="17.1"/>
	
		<text transform="matrix(1 0 0 1 549.5948 288.9102)" display="inline" fill="#6F1B08" font-family="'HelveticaNeue-Bold'" font-size="14">Burnet Road</text>
</g>
<g id="Layer_6">
	<g>
		<polygon fill="#85230D" points="241,236.7 236.5,166.1 196.5,166.8 201.1,237.3 		"/>
		<polygon fill="#85230D" points="188.3,41.9 195.4,149.7 235.4,149 229.4,53.1 		"/>
		<path fill="#85230D" d="M251.3,127.7l50.1-92.1c-6.9-4.4-12-7.6-13.3-8.4c-4.9-3-9.6-10.4-9.2-21.8h-29.3l-3.5,41.2L251.3,127.7z"
			/>
		<path fill="#85230D" d="M13.1,25.7c1.1-3.3,3.3-12,5.4-20.4h-0.3C8.2,5.3,0,13.5,0,23.5V58c0.8-1.5,1.6-2.9,2.1-4
			C6.8,44.7,11.5,30.4,13.1,25.7z"/>
		<polygon fill="#85230D" points="133.9,27.1 140.3,150.7 178.2,150 170.8,37.1 		"/>
		<path fill="#85230D" d="M296.1,5.3c-0.2,3.6,0.4,6.5,1.1,7.3c4.9,3.1,52.5,33.3,62.9,40c4.5,0.2,14.4,0.8,21.1,2.1
			c1.5,0.3,5,0.8,9.6,1.5c1.6-6.1,4.2-12,7.1-17.6L337.4,5.3H296.1z"/>
		<polygon fill="#85230D" points="159,16.1 229.8,35.5 232.4,5.3 161.2,5.3 		"/>
		<path fill="#85230D" d="M335.4,228.2l31,17.2L445,103.7c-1.5-3.2-3.1-6.1-4.4-8.6l-1-1.9c-0.4-0.7-0.8-1.4-1.1-2.1
			c-2-3.8-3.8-7.4-4.8-11.3c-6.4-0.9-16.9-2.4-27.2-3.8c2.1,16.2-2.4,26.7-4.5,30.5C400.7,108.9,365.1,173.9,335.4,228.2z"/>
		<path fill="#85230D" d="M435.2,59.1l-22.3-12.3c-2.3,4.4-3.9,8.3-5.1,11.8c9.1,1.3,18.8,2.7,26.3,3.7
			C434.5,61.4,434.8,60.3,435.2,59.1z"/>
		<path fill="#85230D" d="M387.1,98.2c0.7-1.4,4.3-8.7,2.3-21.5c-0.2-1.1-0.3-2.2-0.4-3.4c-5.3-0.8-9.4-1.4-11.2-1.8
			c-4.2-0.8-10.6-1.4-15.4-1.6l-72.9,132.8l30.9,17.2C350.2,165.6,385.7,100.7,387.1,98.2z"/>
		<path fill="#85230D" d="M23.7,152.7l46.5-0.8L61.2,7.3l-7.3-2H36.1c-2.3,9.2-5.3,21.3-6.8,25.8c-4.5,13.6-8.4,23.5-11.9,30.5
			C14.3,67.9,7.2,80,3,87.1c6.5,7.7,13.1,16.3,15.5,24.6C20.3,118.2,21.8,132.2,23.7,152.7z"/>
		<path fill="#85230D" d="M346.1,64c-7.2-4.6-19.1-12.1-30.2-19.2l-62.6,115l1.5,23.5l19.7,11L346.1,64z"/>
		<polygon fill="#85230D" points="266.3,209.3 256.1,203.6 257.5,225.4 		"/>
		<polygon fill="#85230D" points="184,237.6 179.4,167.1 141.2,167.8 144.9,238.3 		"/>
		<path fill="#85230D" d="M327.2,243.2c-3.9,7.1-7.6,13.9-11,20.1h47.1L327.2,243.2z"/>
		<path fill="#85230D" d="M455,176.8c-5.9-4.5-8.5-12.6-6.7-21.5c1.4-7.4,3.3-18.3,3.9-28.4c0-0.3,0-0.6,0-0.9l-70.9,127.7l17.2,9.6
			H416l39.1-71.2V176.8z"/>
		<path fill="#85230D" d="M442.3,43.5c0.4-0.7,0.8-1.4,1.2-2.2c3.1-5.5,7-12.5,11.3-20.3c-1.2-8.9-8.8-15.7-18-15.7h-63.8
			L442.3,43.5z"/>
		<path fill="#85230D" d="M453.6,82.9c0.4,0.8,0.8,1.6,1.3,2.4l0.1,0.2V70l-4.4-2.4C449.1,74.5,451.1,78.2,453.6,82.9z"/>
		<path fill="#85230D" d="M24.3,262.7c-3.1-14.8-11.9-58.8-13.5-69.4c-1.2-8.1-2.4-20.8-3.7-34.2c-1.5-16.4-3.4-36.7-5.1-42.6
			c-0.4-1.4-1.1-2.9-2-4.5v133.1c0,10.1,8.2,18.2,18.2,18.2h6.1C24.3,263.1,24.3,262.9,24.3,262.7z"/>
		<path fill="#85230D" d="M132,8.8l10.5,2.8l1.3-6.3h-12.6C131.4,6.5,131.7,7.7,132,8.8z"/>
		<path fill="#85230D" d="M435.5,263.3h1.3c10.1,0,18.2-8.2,18.2-18.2v-17.3L435.5,263.3z"/>
		<path fill="#85230D" d="M312.2,234.9l-30.9-17.2l-21.8,39.6l0.4,6h36.7C301.2,254.9,306.5,245.2,312.2,234.9z"/>
		<polygon fill="#85230D" points="127.7,238.6 124.1,168.1 88.4,168.7 92.7,239.2 		"/>
		<path fill="#85230D" d="M37.1,240.1l38.4-0.6L71.2,169l-45.9,0.8c0.8,8.4,1.6,15.8,2.4,20.9C28.7,197.8,33.4,221.6,37.1,240.1z"/>
		<polygon fill="#85230D" points="78.7,12 87.3,151.6 123.2,151 116.5,22.3 		"/>
		<polygon fill="#85230D" points="242.1,253.8 93.8,256.3 94.2,263.3 242.7,263.3 		"/>
		<path fill="#85230D" d="M76.6,256.6l-36,0.6c0.2,0.8,0.3,1.5,0.4,2.1c0.2,1.2,0.5,2.6,0.8,4H77L76.6,256.6z"/>
	</g>
	<path fill="#4BB7F7" d="M237,99.3c0-6.5-4.4-11.6-10.5-11.6c-6,0-10.5,5.1-10.5,11.6c0,6.5,3.8,8.6,6.1,12.6
		c2.1,3.6,4.3,11.2,4.4,11.5c0,0,0,0,0,0s0,0,0,0c0,0,0,0,0,0s0,0,0,0c0.1-0.3,2.3-7.9,4.4-11.5C233.2,107.9,237,105.8,237,99.3z"/>
	<g>
		<path fill="#85230D" d="M249.4,144.1c0,0.5,0,1,0,1.5c-0.1,0.4-0.2,0.8-0.4,1.1c-0.2,0.3-0.5,0.6-0.8,0.8
			c-0.3,0.2-0.8,0.3-1.3,0.3c-0.6,0-1-0.1-1.4-0.3c-0.4-0.2-0.7-0.6-1-1.1c-0.2,0.7-0.5,1.2-0.9,1.6c-0.5,0.4-1.1,0.6-1.7,0.6
			c-0.6,0-1.1,0-1.5-0.2c-0.4-0.2-0.8-0.5-1.1-0.8c-0.3-0.4-0.5-0.8-0.7-1.2c-0.2-0.5-0.2-0.9-0.3-1.4l-0.4-5.4l11.1-0.7
			L249.4,144.1z M240.2,144.6c0,0.2,0.1,0.5,0.1,0.7c0.1,0.2,0.2,0.4,0.3,0.6c0.1,0.2,0.3,0.3,0.5,0.4c0.2,0.1,0.4,0.1,0.7,0.1
			c0.6,0,1-0.2,1.2-0.6c0.2-0.3,0.3-0.8,0.3-1.3l-0.2-2.7l-3,0.2L240.2,144.6z M244.9,144.1c0,0.4,0.2,0.8,0.4,1.1
			c0.2,0.3,0.6,0.4,1,0.4c0.3,0,0.5-0.1,0.6-0.2c0.2-0.1,0.3-0.2,0.4-0.4c0.1-0.2,0.1-0.3,0.2-0.5c0-0.2,0-0.4,0-0.6l-0.2-2.3
			l-2.6,0.2L244.9,144.1z"/>
		<path fill="#85230D" d="M239.1,155.8l1.1-0.1l0,0c-0.5-0.2-0.8-0.6-1.1-1c-0.2-0.4-0.4-0.9-0.4-1.3c0-0.6,0-1.1,0.1-1.5
			c0.1-0.4,0.3-0.7,0.6-0.9c0.3-0.2,0.6-0.4,1-0.5c0.4-0.1,0.9-0.2,1.4-0.2l4.9-0.3l0.1,2.2l-4.5,0.3c-0.7,0-1.2,0.2-1.5,0.4
			c-0.3,0.2-0.5,0.6-0.4,1.1c0,0.6,0.2,1,0.6,1.3c0.4,0.2,1,0.3,1.8,0.3l4.2-0.3l0.1,2.2l-8,0.5L239.1,155.8z"/>
		<path fill="#85230D" d="M247.5,161.1l-1.5,0.1l0,0c0.3,0.1,0.5,0.2,0.7,0.4c0.2,0.2,0.4,0.4,0.6,0.6c0.2,0.2,0.3,0.5,0.4,0.7
			s0.2,0.5,0.2,0.8c0,0.1,0,0.3,0,0.5l-2.1,0.1c0-0.1,0-0.2,0-0.4c0-0.1,0-0.3,0-0.4c0-0.4-0.1-0.7-0.3-1c-0.2-0.3-0.4-0.5-0.6-0.6
			c-0.2-0.2-0.5-0.3-0.8-0.3c-0.3-0.1-0.7-0.1-1,0l-3.6,0.2l-0.1-2.2l8-0.5L247.5,161.1z"/>
		<path fill="#85230D" d="M247.9,167.5l-1.1,0.1l0,0c0.5,0.2,0.8,0.6,1.1,1c0.2,0.4,0.4,0.9,0.4,1.3c0,0.6,0,1.1-0.1,1.5
			c-0.1,0.4-0.3,0.7-0.6,0.9c-0.3,0.2-0.6,0.4-1,0.5s-0.9,0.2-1.4,0.2l-4.9,0.3l-0.1-2.2l4.5-0.3c0.7,0,1.2-0.2,1.5-0.4
			c0.3-0.2,0.5-0.6,0.4-1.1c0-0.6-0.2-1-0.6-1.3c-0.4-0.2-1-0.3-1.8-0.3l-4.2,0.3l-0.1-2.2l8-0.5L247.9,167.5z"/>
		<path fill="#85230D" d="M242.4,177.4c-0.3,0.4-0.4,0.8-0.4,1.5c0,0.4,0.2,0.8,0.4,1.1c0.2,0.3,0.5,0.5,0.7,0.5l0.1,1.9
			c-1-0.2-1.7-0.7-2.2-1.3c-0.5-0.6-0.7-1.4-0.8-2.3c0-0.6,0-1.2,0.2-1.7c0.2-0.5,0.4-1,0.8-1.3c0.3-0.4,0.8-0.7,1.3-0.9
			c0.5-0.2,1.1-0.4,1.7-0.4c0.6,0,1.2,0,1.7,0.2c0.5,0.2,1,0.4,1.4,0.8c0.4,0.3,0.7,0.8,1,1.2s0.4,1,0.4,1.7c0,0.7,0,1.3-0.3,1.8
			c-0.2,0.5-0.6,1-1,1.3c-0.4,0.4-0.9,0.6-1.5,0.8s-1.2,0.3-1.8,0.3l-0.4-5.8C243.2,176.8,242.7,177,242.4,177.4z M246.8,179.6
			c0.3-0.3,0.4-0.7,0.4-1.2c0-0.4-0.1-0.6-0.2-0.9c-0.1-0.2-0.3-0.4-0.5-0.5c-0.2-0.1-0.4-0.2-0.6-0.3c-0.2,0-0.4-0.1-0.5-0.1
			l0.2,3.6C246.2,180.1,246.6,179.8,246.8,179.6z"/>
		<path fill="#85230D" d="M249.3,187.9l-1.5,0.1l-0.1-1.6l-4,0.3c-0.4,0-0.6,0.1-0.7,0.2c-0.1,0.1-0.2,0.4-0.1,0.8
			c0,0.1,0,0.2,0,0.4c0,0.1,0,0.2,0.1,0.3l-1.7,0.1c0-0.2-0.1-0.4-0.1-0.6c0-0.2,0-0.4-0.1-0.7c0-0.3,0-0.7,0-1
			c0-0.3,0.1-0.6,0.2-0.8c0.1-0.2,0.3-0.4,0.5-0.6c0.2-0.2,0.6-0.2,1-0.3l4.7-0.3l-0.1-1.3l1.5-0.1l0.1,1.3l2.4-0.2l0.1,2.2
			l-2.4,0.2L249.3,187.9z"/>
		<path fill="#85230D" d="M253.1,199.3c0,0.5,0,1-0.2,1.4c-0.1,0.4-0.3,0.8-0.6,1.1c-0.3,0.3-0.6,0.5-0.9,0.7
			c-0.4,0.2-0.7,0.3-1.2,0.3c-0.7,0-1.2-0.1-1.7-0.3c-0.5-0.2-0.9-0.7-1.2-1.3l0,0c-0.1,0.3-0.2,0.6-0.3,0.8
			c-0.2,0.2-0.3,0.4-0.6,0.5c-0.2,0.1-0.5,0.2-0.8,0.3c-0.3,0.1-0.6,0.1-0.8,0.2c-0.2,0-0.4,0-0.6,0.1c-0.2,0-0.5,0.1-0.7,0.1
			c-0.2,0-0.5,0.1-0.7,0.2c-0.2,0.1-0.4,0.2-0.6,0.3l-0.2-2.4c0.3-0.2,0.8-0.3,1.2-0.3s0.9-0.1,1.4-0.2c0.6-0.1,1-0.3,1.2-0.6
			c0.3-0.3,0.4-0.7,0.3-1.3l-0.2-2.4l-4.3,0.3l-0.2-2.4l11.1-0.7L253.1,199.3z M248,198.8c0,0.6,0.2,1,0.5,1.2
			c0.3,0.3,0.7,0.4,1.2,0.3c0.5,0,0.9-0.2,1.1-0.5c0.2-0.3,0.3-0.7,0.3-1.3l-0.2-2.7l-3.1,0.2L248,198.8z"/>
		<path fill="#85230D" d="M248.1,204.7c0.5,0.2,1,0.4,1.4,0.8c0.4,0.3,0.7,0.8,0.9,1.2c0.2,0.5,0.4,1.1,0.4,1.7s0,1.2-0.2,1.7
			c-0.2,0.5-0.4,1-0.8,1.4c-0.3,0.4-0.8,0.7-1.3,0.9c-0.5,0.2-1.1,0.4-1.7,0.4c-0.6,0-1.2,0-1.8-0.2c-0.5-0.2-1-0.4-1.4-0.8
			c-0.4-0.3-0.7-0.8-0.9-1.3c-0.2-0.5-0.4-1.1-0.4-1.7s0-1.2,0.2-1.7c0.2-0.5,0.4-1,0.8-1.4s0.8-0.7,1.3-0.9
			c0.5-0.2,1.1-0.4,1.7-0.4C247,204.5,247.6,204.6,248.1,204.7z M245.6,206.9c-0.3,0.1-0.6,0.2-0.8,0.4c-0.2,0.2-0.4,0.4-0.5,0.6
			c-0.1,0.3-0.2,0.6-0.2,0.9c0,0.4,0.1,0.7,0.3,0.9s0.4,0.4,0.6,0.6c0.3,0.1,0.5,0.2,0.8,0.3c0.3,0,0.6,0.1,0.9,0
			c0.3,0,0.6-0.1,0.9-0.2c0.3-0.1,0.6-0.2,0.8-0.4c0.2-0.2,0.4-0.4,0.5-0.6c0.1-0.3,0.2-0.6,0.2-1c0-0.4-0.1-0.7-0.3-0.9
			c-0.2-0.2-0.4-0.4-0.6-0.6c-0.2-0.1-0.5-0.2-0.8-0.3c-0.3,0-0.6-0.1-1,0C246.2,206.8,245.9,206.8,245.6,206.9z"/>
		<path fill="#85230D" d="M249.9,214.4c0.4,0.2,0.7,0.5,0.9,0.8c0.2,0.3,0.4,0.7,0.5,1.2s0.2,0.9,0.2,1.3c0,0.4,0,0.8,0,1.2
			c0,0.4-0.1,0.8-0.3,1.2c-0.1,0.4-0.4,0.6-0.6,0.9c-0.3,0.2-0.7,0.4-1.2,0.4l-4.2,0.3c-0.4,0-0.7,0.1-1,0.1
			c-0.3,0.1-0.6,0.2-0.7,0.3l-0.1-2.2c0.1,0,0.2-0.1,0.4-0.1s0.3-0.1,0.4-0.1c-0.4-0.3-0.7-0.7-0.8-1.2c-0.2-0.5-0.3-1-0.3-1.4
			c0-0.4,0-0.7,0.1-1.1c0.1-0.3,0.2-0.6,0.4-0.9c0.2-0.3,0.4-0.5,0.7-0.6c0.3-0.2,0.6-0.3,1.1-0.3c0.5,0,0.8,0,1.1,0.2
			c0.3,0.1,0.6,0.3,0.7,0.6c0.2,0.2,0.3,0.5,0.5,0.8c0.1,0.3,0.2,0.6,0.3,1c0.1,0.3,0.1,0.7,0.2,1c0.1,0.3,0.1,0.6,0.2,0.8
			c0.1,0.2,0.2,0.4,0.3,0.6c0.1,0.1,0.3,0.2,0.5,0.2c0.2,0,0.4-0.1,0.6-0.2c0.1-0.1,0.2-0.2,0.3-0.3c0.1-0.1,0.1-0.3,0.1-0.5
			c0-0.2,0-0.4,0-0.6c0-0.4-0.1-0.8-0.3-1c-0.2-0.2-0.5-0.4-1-0.4l-0.1-2.2C249.1,214.1,249.5,214.2,249.9,214.4z M247,219
			c-0.1-0.1-0.1-0.3-0.1-0.4c0-0.2-0.1-0.3-0.1-0.5s-0.1-0.4-0.1-0.5c0-0.2-0.1-0.3-0.2-0.5c-0.1-0.2-0.1-0.3-0.2-0.4
			c-0.1-0.1-0.2-0.2-0.4-0.3c-0.1-0.1-0.3-0.1-0.5-0.1c-0.2,0-0.4,0.1-0.5,0.1c-0.1,0.1-0.2,0.2-0.3,0.3c-0.1,0.1-0.1,0.3-0.1,0.4
			c0,0.2,0,0.3,0,0.5c0,0.4,0.1,0.8,0.3,1c0.2,0.2,0.3,0.4,0.6,0.5c0.2,0.1,0.4,0.2,0.6,0.2c0.2,0,0.4,0,0.5,0l0.8-0.1
			C247.2,219.2,247.1,219.1,247,219z"/>
		<path fill="#85230D" d="M245,229.1c-0.5-0.2-0.8-0.5-1-1c-0.2-0.4-0.3-0.9-0.4-1.4c0-0.6,0-1.1,0.2-1.6s0.5-0.9,0.9-1.2
			c0.4-0.3,0.8-0.6,1.3-0.8c0.5-0.2,1-0.3,1.6-0.3c0.5,0,1.1,0,1.6,0.1s1,0.3,1.4,0.6c0.4,0.3,0.7,0.6,1,1.1
			c0.3,0.4,0.4,0.9,0.5,1.5c0,0.5,0,0.9-0.2,1.4c-0.2,0.4-0.4,0.8-0.8,1.1l0,0l4-0.3l0.1,2.2l-11.1,0.7l-0.1-2.1L245,229.1
			L245,229.1z M248.9,228.8c0.3-0.1,0.6-0.2,0.8-0.4c0.2-0.2,0.4-0.4,0.5-0.6c0.1-0.2,0.2-0.6,0.2-0.9c0-0.4-0.1-0.7-0.3-0.9
			c-0.2-0.2-0.4-0.4-0.6-0.6c-0.2-0.1-0.5-0.2-0.8-0.3c-0.3,0-0.6-0.1-1,0c-0.3,0-0.6,0.1-0.9,0.2c-0.3,0.1-0.6,0.2-0.8,0.4
			c-0.2,0.2-0.4,0.4-0.6,0.6c-0.1,0.3-0.2,0.6-0.2,0.9c0,0.4,0.1,0.7,0.3,0.9c0.2,0.2,0.4,0.4,0.6,0.5c0.3,0.1,0.5,0.2,0.9,0.3
			c0.3,0,0.6,0.1,1,0C248.3,228.9,248.6,228.8,248.9,228.8z"/>
	</g>
	<g>
		<path fill="#85230D" d="M123.1,35.3c-0.3,0.1-0.5,0.3-0.6,0.6c-0.1,0.2-0.3,0.5-0.3,0.8c-0.1,0.3-0.1,0.6-0.1,0.9
			c0,0.2,0,0.5,0.1,0.7c0,0.2,0.1,0.5,0.2,0.7c0.1,0.2,0.3,0.4,0.5,0.5c0.2,0.1,0.4,0.2,0.7,0.2c0.3,0,0.5-0.1,0.7-0.3
			c0.2-0.2,0.3-0.5,0.4-0.8c0.1-0.3,0.2-0.7,0.3-1.1c0.1-0.4,0.2-0.8,0.3-1.2c0.1-0.4,0.2-0.8,0.3-1.2c0.1-0.4,0.3-0.8,0.5-1.1
			c0.2-0.3,0.5-0.6,0.9-0.8s0.8-0.3,1.3-0.4c0.6,0,1.1,0.1,1.5,0.3c0.4,0.2,0.8,0.5,1.1,0.9c0.3,0.4,0.5,0.8,0.7,1.3
			c0.2,0.5,0.3,1,0.3,1.5c0,0.6,0,1.1-0.1,1.7c-0.1,0.5-0.3,1-0.6,1.5c-0.3,0.4-0.6,0.8-1.1,1c-0.4,0.3-1,0.4-1.6,0.4l-0.1-2.4
			c0.3,0,0.6-0.1,0.8-0.3c0.2-0.1,0.4-0.3,0.5-0.5c0.1-0.2,0.2-0.4,0.2-0.7c0-0.3,0.1-0.5,0-0.8c0-0.2,0-0.4-0.1-0.6
			c-0.1-0.2-0.1-0.4-0.2-0.5s-0.2-0.3-0.4-0.4c-0.2-0.1-0.4-0.1-0.6-0.1c-0.2,0-0.4,0.1-0.5,0.2c-0.1,0.1-0.2,0.3-0.3,0.5
			c-0.1,0.2-0.2,0.6-0.3,1c-0.1,0.4-0.2,1-0.4,1.7c0,0.2-0.1,0.5-0.2,0.9c-0.1,0.4-0.2,0.7-0.5,1.1c-0.2,0.4-0.5,0.7-0.9,1
			c-0.4,0.3-0.9,0.4-1.5,0.5c-0.5,0-1,0-1.4-0.2c-0.4-0.2-0.8-0.4-1.2-0.8c-0.3-0.4-0.6-0.8-0.8-1.4c-0.2-0.6-0.3-1.2-0.4-2
			c0-0.6,0-1.2,0.1-1.8c0.1-0.6,0.3-1.1,0.6-1.6c0.3-0.5,0.7-0.8,1.2-1.1c0.5-0.3,1.1-0.4,1.8-0.5l0.1,2.4
			C123.7,35.1,123.4,35.1,123.1,35.3z"/>
		<path fill="#85230D" d="M132,45.1l-4.2,0.2l0,0c0.5,0.3,0.8,0.6,1.1,1c0.2,0.4,0.4,0.8,0.4,1.3c0,0.6,0,1.1-0.2,1.5
			c-0.1,0.4-0.4,0.7-0.6,0.9c-0.3,0.2-0.6,0.4-1,0.5c-0.4,0.1-0.9,0.2-1.4,0.2l-4.9,0.2l-0.1-2.2l4.5-0.2c0.7,0,1.2-0.2,1.5-0.4
			c0.3-0.2,0.5-0.6,0.4-1.1c0-0.6-0.2-1-0.6-1.3c-0.4-0.3-1-0.4-1.8-0.3l-4.2,0.2l-0.1-2.2l11.1-0.6L132,45.1z"/>
		<path fill="#85230D" d="M127,52.4c0.5,0.2,1,0.4,1.4,0.8c0.4,0.3,0.7,0.8,0.9,1.3c0.2,0.5,0.4,1.1,0.4,1.7c0,0.6,0,1.2-0.2,1.7
			c-0.2,0.5-0.4,1-0.8,1.4c-0.4,0.4-0.8,0.7-1.3,0.9c-0.5,0.2-1.1,0.4-1.7,0.4c-0.6,0-1.2,0-1.8-0.2c-0.5-0.2-1-0.4-1.4-0.8
			c-0.4-0.3-0.7-0.8-0.9-1.3c-0.2-0.5-0.4-1.1-0.4-1.7c0-0.6,0-1.2,0.2-1.7c0.2-0.5,0.4-1,0.8-1.3c0.3-0.4,0.8-0.7,1.3-0.9
			c0.5-0.2,1.1-0.4,1.7-0.4C125.9,52.2,126.5,52.2,127,52.4z M124.4,54.6c-0.3,0.1-0.6,0.2-0.8,0.4c-0.2,0.2-0.4,0.4-0.6,0.6
			c-0.1,0.3-0.2,0.6-0.2,0.9c0,0.4,0.1,0.7,0.3,0.9c0.2,0.2,0.4,0.4,0.6,0.6c0.3,0.1,0.5,0.2,0.8,0.3c0.3,0,0.6,0.1,0.9,0
			c0.3,0,0.6-0.1,0.9-0.1c0.3-0.1,0.6-0.2,0.8-0.4c0.2-0.2,0.4-0.4,0.6-0.6c0.1-0.3,0.2-0.6,0.2-1c0-0.4-0.1-0.7-0.3-0.9
			c-0.2-0.2-0.4-0.4-0.6-0.6c-0.2-0.1-0.5-0.2-0.8-0.3c-0.3,0-0.6-0.1-1,0C125,54.4,124.7,54.5,124.4,54.6z"/>
		<path fill="#85230D" d="M128.6,62.1c0.4,0.2,0.6,0.5,0.9,0.8c0.2,0.3,0.4,0.7,0.5,1.2c0.1,0.4,0.2,0.9,0.2,1.3c0,0.4,0,0.8,0,1.2
			c0,0.4-0.1,0.8-0.3,1.2s-0.4,0.6-0.6,0.9c-0.3,0.2-0.7,0.4-1.2,0.4l-4.2,0.2c-0.4,0-0.7,0.1-1,0.1c-0.3,0.1-0.6,0.1-0.7,0.3
			l-0.1-2.2c0.1,0,0.2-0.1,0.4-0.1c0.1,0,0.3-0.1,0.4-0.1c-0.4-0.3-0.7-0.7-0.8-1.2c-0.2-0.5-0.3-1-0.3-1.5c0-0.4,0-0.7,0.1-1.1
			c0.1-0.3,0.2-0.6,0.4-0.9c0.2-0.3,0.4-0.5,0.7-0.6c0.3-0.2,0.6-0.2,1.1-0.3c0.5,0,0.8,0,1.1,0.2c0.3,0.1,0.6,0.3,0.7,0.6
			s0.3,0.5,0.4,0.9c0.1,0.3,0.2,0.6,0.3,1c0.1,0.3,0.1,0.7,0.2,1c0,0.3,0.1,0.6,0.2,0.8c0.1,0.2,0.2,0.4,0.3,0.6
			c0.1,0.1,0.3,0.2,0.5,0.2c0.2,0,0.4-0.1,0.6-0.1c0.1-0.1,0.2-0.2,0.3-0.3c0.1-0.1,0.1-0.3,0.1-0.5c0-0.2,0-0.4,0-0.6
			c0-0.4-0.1-0.8-0.3-1c-0.2-0.2-0.5-0.4-1-0.4l-0.1-2.2C127.8,61.8,128.2,61.9,128.6,62.1z M125.7,66.6c-0.1-0.1-0.1-0.3-0.1-0.4
			c0-0.2-0.1-0.3-0.1-0.5c0-0.2-0.1-0.4-0.1-0.5c0-0.2-0.1-0.3-0.1-0.5c-0.1-0.2-0.1-0.3-0.2-0.4s-0.2-0.2-0.3-0.3
			c-0.1-0.1-0.3-0.1-0.5-0.1c-0.2,0-0.4,0.1-0.5,0.1c-0.1,0.1-0.2,0.2-0.3,0.3c-0.1,0.1-0.1,0.3-0.1,0.4s0,0.3,0,0.5
			c0,0.4,0.1,0.8,0.3,1c0.2,0.2,0.3,0.4,0.5,0.5c0.2,0.1,0.4,0.2,0.6,0.2c0.2,0,0.4,0,0.5,0l0.8,0C125.8,66.9,125.8,66.8,125.7,66.6
			z"/>
		<path fill="#85230D" d="M133.4,72.8l-11.1,0.6l-0.1-2.2l11.1-0.6L133.4,72.8z"/>
		<path fill="#85230D" d="M122.7,82l5.3-1.7l0,0l-5.5-1.1l-0.1-2.3l7.9-3l0.1,2.3l-5.4,1.8l0,0l5.5,1.1l0.1,2.1l-5.4,1.6l0,0
			l5.5,1.2l0.1,2.3l-8.2-2.1L122.7,82z"/>
		<path fill="#85230D" d="M128.8,87.5c0.5,0.2,1,0.4,1.4,0.8c0.4,0.3,0.7,0.8,0.9,1.3c0.2,0.5,0.4,1.1,0.4,1.7c0,0.6,0,1.2-0.2,1.7
			c-0.2,0.5-0.4,1-0.8,1.4c-0.4,0.4-0.8,0.7-1.3,0.9c-0.5,0.2-1.1,0.4-1.7,0.4c-0.6,0-1.2,0-1.8-0.2c-0.5-0.2-1-0.4-1.4-0.8
			c-0.4-0.3-0.7-0.8-0.9-1.3c-0.2-0.5-0.4-1.1-0.4-1.7c0-0.6,0-1.2,0.2-1.7c0.2-0.5,0.4-1,0.8-1.3c0.3-0.4,0.8-0.7,1.3-0.9
			c0.5-0.2,1.1-0.4,1.7-0.4C127.7,87.3,128.2,87.4,128.8,87.5z M126.2,89.7c-0.3,0.1-0.6,0.2-0.8,0.4c-0.2,0.2-0.4,0.4-0.6,0.6
			c-0.1,0.3-0.2,0.6-0.2,0.9c0,0.4,0.1,0.7,0.3,0.9c0.2,0.2,0.4,0.4,0.6,0.6c0.3,0.1,0.5,0.2,0.8,0.3c0.3,0,0.6,0.1,0.9,0
			c0.3,0,0.6-0.1,0.9-0.1c0.3-0.1,0.6-0.2,0.8-0.4c0.2-0.2,0.4-0.4,0.6-0.6c0.1-0.3,0.2-0.6,0.2-1c0-0.4-0.1-0.7-0.3-0.9
			c-0.2-0.2-0.4-0.4-0.6-0.6c-0.2-0.1-0.5-0.2-0.8-0.3c-0.3,0-0.6-0.1-1,0C126.8,89.6,126.5,89.6,126.2,89.7z"/>
		<path fill="#85230D" d="M129.3,97c0.5,0.2,1,0.4,1.4,0.8c0.4,0.3,0.7,0.8,0.9,1.3c0.2,0.5,0.4,1.1,0.4,1.7c0,0.6,0,1.2-0.2,1.7
			c-0.2,0.5-0.4,1-0.8,1.4c-0.4,0.4-0.8,0.7-1.3,0.9c-0.5,0.2-1.1,0.4-1.7,0.4c-0.6,0-1.2,0-1.8-0.2c-0.5-0.2-1-0.4-1.4-0.8
			c-0.4-0.3-0.7-0.8-0.9-1.3c-0.2-0.5-0.4-1.1-0.4-1.7c0-0.6,0-1.2,0.2-1.7c0.2-0.5,0.4-1,0.8-1.3c0.4-0.4,0.8-0.7,1.3-0.9
			c0.5-0.2,1.1-0.4,1.7-0.4C128.1,96.8,128.7,96.9,129.3,97z M126.7,99.2c-0.3,0.1-0.6,0.2-0.8,0.4c-0.2,0.2-0.4,0.4-0.6,0.6
			c-0.1,0.3-0.2,0.6-0.2,0.9c0,0.4,0.1,0.7,0.3,0.9c0.2,0.2,0.4,0.4,0.6,0.6c0.3,0.1,0.5,0.2,0.8,0.3c0.3,0,0.6,0.1,0.9,0
			c0.3,0,0.6-0.1,0.9-0.1c0.3-0.1,0.6-0.2,0.8-0.4c0.2-0.2,0.4-0.4,0.6-0.6c0.1-0.3,0.2-0.6,0.2-1c0-0.4-0.1-0.7-0.3-0.9
			c-0.2-0.2-0.4-0.4-0.6-0.6c-0.2-0.1-0.5-0.2-0.8-0.3c-0.3,0-0.6-0.1-1,0C127.3,99.1,127,99.1,126.7,99.2z"/>
		<path fill="#85230D" d="M125.3,112.5c-0.4-0.2-0.8-0.6-1-1c-0.2-0.4-0.3-0.9-0.4-1.4c0-0.6,0.1-1.1,0.3-1.6
			c0.2-0.5,0.5-0.9,0.9-1.2c0.4-0.3,0.8-0.6,1.3-0.7c0.5-0.2,1-0.3,1.6-0.3c0.5,0,1.1,0,1.6,0.1c0.5,0.1,1,0.3,1.4,0.6
			c0.4,0.3,0.7,0.6,1,1.1c0.3,0.4,0.4,0.9,0.4,1.5c0,0.5-0.1,0.9-0.2,1.4c-0.2,0.4-0.5,0.8-0.8,1.1l0,0l4-0.2l0.1,2.2l-11.1,0.6
			l-0.1-2.1L125.3,112.5L125.3,112.5z M129.3,112.2c0.3-0.1,0.6-0.2,0.8-0.4c0.2-0.2,0.4-0.4,0.5-0.6c0.1-0.2,0.2-0.6,0.2-0.9
			c0-0.4-0.1-0.7-0.3-0.9c-0.2-0.2-0.4-0.4-0.6-0.6c-0.2-0.1-0.5-0.2-0.8-0.3c-0.3-0.1-0.6-0.1-1-0.1c-0.3,0-0.6,0.1-0.9,0.2
			c-0.3,0.1-0.6,0.2-0.8,0.4c-0.2,0.2-0.4,0.4-0.6,0.6c-0.1,0.3-0.2,0.5-0.2,0.9c0,0.4,0.1,0.7,0.3,0.9c0.2,0.2,0.4,0.4,0.6,0.6
			c0.3,0.1,0.5,0.2,0.8,0.3c0.3,0,0.6,0.1,1,0S129,112.2,129.3,112.2z"/>
		<path fill="#85230D" d="M136.1,125.8l-10.9,4.7L125,128l2.4-1l-0.2-4.2l-2.5-0.7l-0.1-2.5l11.3,3.6L136.1,125.8z M129.3,126.3
			l4-1.6l0,0l-4.1-1.2L129.3,126.3z"/>
		<path fill="#85230D" d="M125.3,133l7.9-3.2l0.1,2.3l-5.4,2l0,0l5.6,1.4l0.1,2.2l-8.2-2.3L125.3,133z"/>
		<path fill="#85230D" d="M127.6,141.4c-0.3,0.3-0.4,0.8-0.4,1.5c0,0.4,0.2,0.8,0.4,1.1c0.2,0.3,0.5,0.5,0.7,0.6l0.1,1.9
			c-1-0.3-1.7-0.7-2.1-1.3c-0.4-0.6-0.7-1.4-0.7-2.3c0-0.6,0-1.2,0.2-1.7c0.2-0.5,0.4-1,0.8-1.3c0.4-0.4,0.8-0.7,1.3-0.9
			c0.5-0.2,1.1-0.3,1.7-0.4c0.6,0,1.2,0,1.7,0.2c0.5,0.2,1,0.4,1.4,0.8c0.4,0.3,0.7,0.8,1,1.3c0.2,0.5,0.4,1,0.4,1.7
			c0,0.7-0.1,1.3-0.3,1.8c-0.2,0.5-0.6,1-1,1.3c-0.4,0.3-0.9,0.6-1.5,0.8c-0.6,0.2-1.2,0.3-1.8,0.2l-0.3-5.8
			C128.5,140.8,128,141,127.6,141.4z M132,143.7c0.3-0.3,0.4-0.7,0.4-1.2c0-0.4-0.1-0.6-0.2-0.9c-0.1-0.2-0.3-0.4-0.5-0.5
			c-0.2-0.1-0.4-0.2-0.6-0.3s-0.4-0.1-0.5-0.1l0.2,3.6C131.3,144.1,131.7,143.9,132,143.7z"/>
	</g>
	<g>
		<path fill="#85230D" d="M110.1,6.2l2.5,8.4l0,0l2-7.2l2.2,0.6l-2.9,10.7l-2.4-0.6L109,9.7l0,0l-2,7.2l-2.2-0.6l2.9-10.7L110.1,6.2
			z"/>
		<path fill="#85230D" d="M117.3,13.7c0.3-0.5,0.7-0.8,1.2-1.1s0.9-0.4,1.5-0.5c0.5-0.1,1.1,0,1.7,0.2s1.1,0.4,1.6,0.7
			c0.4,0.3,0.8,0.7,1,1.2c0.3,0.5,0.4,1,0.5,1.5c0.1,0.6,0,1.1-0.2,1.8c-0.2,0.6-0.4,1.2-0.7,1.6c-0.3,0.4-0.7,0.8-1.2,1.1
			c-0.4,0.3-0.9,0.4-1.5,0.5c-0.5,0.1-1.1,0-1.7-0.2c-0.6-0.2-1.1-0.4-1.6-0.7c-0.4-0.3-0.8-0.7-1-1.2c-0.3-0.5-0.4-1-0.5-1.5
			c-0.1-0.6,0-1.1,0.2-1.8S116.9,14.1,117.3,13.7z M118.5,16.8c0,0.3,0,0.6,0.1,0.9c0.1,0.3,0.2,0.5,0.4,0.7
			c0.2,0.2,0.5,0.4,0.8,0.5c0.4,0.1,0.7,0.1,1,0c0.3-0.1,0.5-0.2,0.7-0.4c0.2-0.2,0.4-0.4,0.5-0.7c0.1-0.3,0.3-0.6,0.3-0.9
			c0.1-0.3,0.1-0.6,0.2-0.9c0-0.3,0-0.6-0.1-0.9c-0.1-0.3-0.2-0.5-0.4-0.7c-0.2-0.2-0.5-0.4-0.9-0.5c-0.4-0.1-0.7-0.1-1,0
			c-0.3,0.1-0.5,0.2-0.7,0.4c-0.2,0.2-0.4,0.4-0.5,0.7c-0.1,0.3-0.3,0.6-0.3,0.9C118.6,16.2,118.5,16.5,118.5,16.8z"/>
		<path fill="#85230D" d="M129,14.5l-0.4,1.4l0,0c0.2-0.2,0.4-0.4,0.6-0.6c0.2-0.2,0.5-0.3,0.7-0.4s0.5-0.1,0.8-0.1
			c0.3,0,0.5,0,0.8,0.1c0.1,0,0.3,0.1,0.4,0.2l-0.5,2c-0.1,0-0.2-0.1-0.3-0.2c-0.1-0.1-0.3-0.1-0.4-0.1c-0.4-0.1-0.7-0.1-1-0.1
			c-0.3,0.1-0.6,0.2-0.8,0.4c-0.2,0.2-0.4,0.4-0.6,0.7c-0.2,0.3-0.3,0.6-0.4,0.9l-1,3.5l-2.1-0.6L127,14L129,14.5z"/>
		<path fill="#85230D" d="M137.1,16.7l-0.4,1.4l-1.6-0.4l-1,3.9c-0.1,0.4-0.1,0.6,0,0.8c0.1,0.2,0.3,0.3,0.7,0.4
			c0.1,0,0.2,0.1,0.4,0.1c0.1,0,0.2,0,0.3,0l-0.4,1.7c-0.2,0-0.4-0.1-0.6-0.1c-0.2-0.1-0.4-0.1-0.7-0.2c-0.3-0.1-0.6-0.2-0.9-0.3
			c-0.3-0.1-0.5-0.3-0.7-0.5c-0.2-0.2-0.3-0.4-0.4-0.7c-0.1-0.3,0-0.6,0.1-1l1.2-4.6l-1.3-0.4l0.4-1.4l1.3,0.4l0.6-2.3l2.1,0.6
			l-0.6,2.3L137.1,16.7z"/>
		<path fill="#85230D" d="M141.1,14.6l-1.1,4l0,0c0.4-0.4,0.8-0.6,1.3-0.7c0.5-0.1,0.9-0.1,1.3,0c0.6,0.2,1,0.4,1.3,0.6
			c0.3,0.3,0.6,0.5,0.7,0.9c0.1,0.3,0.2,0.7,0.2,1.1c0,0.4-0.1,0.9-0.2,1.4l-1.3,4.8l-2.1-0.6l1.2-4.4c0.2-0.6,0.2-1.1,0.1-1.5
			c-0.1-0.4-0.4-0.6-0.9-0.8c-0.6-0.2-1-0.1-1.4,0.2c-0.4,0.3-0.6,0.8-0.9,1.6l-1.1,4.1l-2.1-0.6L139,14L141.1,14.6z"/>
		<path fill="#85230D" d="M150.1,17l-2.9,10.7l-2.1-0.6l2.9-10.7L150.1,17z"/>
		<path fill="#85230D" d="M150.9,21.7c0.3-0.3,0.7-0.5,1.1-0.6c0.4-0.1,0.8-0.1,1.3-0.1c0.4,0,0.9,0.1,1.3,0.2
			c0.4,0.1,0.8,0.2,1.2,0.4c0.4,0.2,0.7,0.4,1,0.6c0.3,0.3,0.5,0.5,0.6,0.9c0.1,0.3,0.1,0.8,0,1.2l-1.1,4c-0.1,0.4-0.2,0.7-0.2,1
			c0,0.3,0,0.6,0,0.8l-2.2-0.6c0-0.1,0-0.3,0-0.4c0-0.1,0-0.3,0.1-0.4c-0.4,0.3-0.9,0.4-1.4,0.4c-0.5,0-1,0-1.5-0.2
			c-0.4-0.1-0.7-0.2-1-0.4c-0.3-0.2-0.5-0.4-0.7-0.7c-0.2-0.3-0.3-0.5-0.4-0.9c-0.1-0.3,0-0.7,0.1-1.1c0.1-0.4,0.3-0.8,0.5-1
			c0.2-0.2,0.5-0.4,0.8-0.5c0.3-0.1,0.6-0.2,0.9-0.2c0.3,0,0.7,0,1,0.1c0.3,0,0.7,0.1,1,0.1c0.3,0.1,0.6,0.1,0.9,0.1
			c0.3,0,0.5,0,0.6-0.1c0.2-0.1,0.3-0.2,0.3-0.5c0.1-0.2,0.1-0.4,0-0.6c0-0.2-0.1-0.3-0.2-0.4c-0.1-0.1-0.2-0.2-0.4-0.3
			c-0.2-0.1-0.3-0.1-0.5-0.2c-0.4-0.1-0.8-0.1-1.1,0s-0.5,0.4-0.7,0.8l-2.1-0.6C150.4,22.3,150.6,22,150.9,21.7z M154.3,25.9
			c-0.1,0-0.3,0-0.5,0c-0.2,0-0.3,0-0.5-0.1c-0.2,0-0.4,0-0.5-0.1c-0.2,0-0.3,0-0.5,0c-0.2,0-0.3,0-0.5,0.1
			c-0.1,0.1-0.3,0.1-0.4,0.2c-0.1,0.1-0.2,0.3-0.2,0.5c-0.1,0.2-0.1,0.4,0,0.5c0,0.1,0.1,0.3,0.2,0.4c0.1,0.1,0.2,0.2,0.4,0.3
			c0.2,0.1,0.3,0.1,0.5,0.2c0.4,0.1,0.8,0.1,1,0.1c0.3-0.1,0.5-0.2,0.6-0.4c0.2-0.2,0.3-0.3,0.4-0.5c0.1-0.2,0.1-0.4,0.2-0.5
			l0.2-0.8C154.6,25.8,154.5,25.8,154.3,25.9z"/>
		<path fill="#85230D" d="M161.6,23.4l-0.3,1.1l0,0c0.4-0.4,0.8-0.6,1.3-0.7c0.5-0.1,1-0.1,1.4,0.1c0.6,0.2,1,0.4,1.3,0.6
			c0.3,0.3,0.6,0.5,0.7,0.9c0.1,0.3,0.2,0.7,0.2,1.1c0,0.4-0.1,0.9-0.2,1.4l-1.3,4.8l-2.1-0.6l1.2-4.4c0.2-0.6,0.2-1.1,0.1-1.5
			c-0.1-0.4-0.4-0.6-0.9-0.8c-0.6-0.2-1-0.1-1.4,0.2c-0.4,0.3-0.6,0.8-0.9,1.6l-1.1,4.1l-2.1-0.6l2.1-7.8L161.6,23.4z"/>
		<path fill="#85230D" d="M172.2,33.5c-0.4,0.4-0.8,0.6-1.2,0.6c-0.5,0.1-0.9,0-1.5-0.1c-0.6-0.2-1.1-0.4-1.4-0.8s-0.7-0.7-0.8-1.2
			c-0.2-0.5-0.3-1-0.3-1.5c0-0.5,0.1-1.1,0.2-1.6c0.1-0.5,0.4-1,0.6-1.5c0.3-0.4,0.6-0.8,1-1.1c0.4-0.3,0.8-0.5,1.3-0.6
			c0.5-0.1,1-0.1,1.6,0.1c0.5,0.1,0.9,0.3,1.2,0.6c0.4,0.3,0.6,0.7,0.8,1.1l0,0l1.1-3.9l2.1,0.6L174,35.1l-2-0.6L172.2,33.5
			L172.2,33.5z M173.1,29.6c0-0.3,0-0.6-0.1-0.9c-0.1-0.3-0.2-0.5-0.4-0.7c-0.2-0.2-0.5-0.4-0.8-0.4c-0.4-0.1-0.7-0.1-0.9,0
			c-0.3,0.1-0.5,0.2-0.7,0.4c-0.2,0.2-0.4,0.4-0.5,0.7c-0.1,0.3-0.3,0.6-0.4,0.9c-0.1,0.3-0.1,0.6-0.1,0.9c0,0.3,0,0.6,0.1,0.9
			c0.1,0.3,0.2,0.5,0.4,0.7c0.2,0.2,0.5,0.4,0.8,0.4c0.4,0.1,0.7,0.1,0.9,0c0.3-0.1,0.5-0.2,0.7-0.4c0.2-0.2,0.4-0.4,0.5-0.7
			c0.1-0.3,0.3-0.6,0.3-0.9C173.1,30.3,173.1,30,173.1,29.6z"/>
		<path fill="#85230D" d="M187.5,27.2c0.7,0.2,1.3,0.5,1.8,0.9c0.5,0.4,1,0.9,1.3,1.4c0.3,0.6,0.5,1.2,0.6,1.9
			c0.1,0.7,0,1.5-0.3,2.4c-0.2,0.8-0.5,1.5-0.9,2.1c-0.4,0.6-0.8,1.1-1.4,1.5c-0.5,0.4-1.1,0.6-1.8,0.7c-0.7,0.1-1.4,0.1-2.3-0.2
			l-4.6-1.3l2.9-10.7L187.5,27.2z M185,35.9c0.3,0.1,0.7,0.1,1,0.1c0.4,0,0.7-0.1,1-0.3c0.3-0.2,0.6-0.5,0.9-0.8
			c0.3-0.4,0.5-0.9,0.6-1.4c0.1-0.5,0.2-1,0.2-1.5c0-0.5-0.1-0.9-0.2-1.3c-0.2-0.4-0.4-0.7-0.8-1c-0.4-0.3-0.8-0.5-1.4-0.6l-1.7-0.5
			l-1.8,6.8L185,35.9z"/>
		<path fill="#85230D" d="M195,32.4l-0.4,1.4l0,0c0.2-0.2,0.4-0.4,0.6-0.6c0.2-0.2,0.5-0.3,0.7-0.4c0.3-0.1,0.5-0.1,0.8-0.1
			s0.5,0,0.8,0.1c0.1,0,0.3,0.1,0.4,0.2l-0.5,2c-0.1,0-0.2-0.1-0.3-0.2c-0.1-0.1-0.3-0.1-0.4-0.1c-0.4-0.1-0.7-0.1-1-0.1
			c-0.3,0.1-0.6,0.2-0.8,0.4c-0.2,0.2-0.4,0.4-0.6,0.7c-0.2,0.3-0.3,0.6-0.4,0.9l-1,3.5l-2.1-0.6l2.1-7.8L195,32.4z"/>
	</g>
	<g>
		<path fill="#85230D" d="M67.4,162.8c0.1,0.3,0.3,0.5,0.5,0.6c0.2,0.2,0.5,0.3,0.8,0.3c0.3,0.1,0.6,0.1,0.9,0.1
			c0.2,0,0.5,0,0.7-0.1c0.2,0,0.5-0.1,0.7-0.2c0.2-0.1,0.4-0.3,0.5-0.4c0.1-0.2,0.2-0.4,0.2-0.7c0-0.3-0.1-0.5-0.3-0.7
			s-0.5-0.3-0.8-0.5c-0.3-0.1-0.7-0.2-1.1-0.3s-0.8-0.2-1.2-0.3c-0.4-0.1-0.8-0.2-1.2-0.4c-0.4-0.1-0.8-0.3-1.1-0.6
			c-0.3-0.2-0.6-0.5-0.8-0.9c-0.2-0.4-0.3-0.8-0.3-1.3c0-0.6,0.1-1.1,0.3-1.5c0.2-0.4,0.5-0.8,0.9-1.1c0.4-0.3,0.8-0.5,1.3-0.6
			c0.5-0.1,1-0.2,1.5-0.2c0.6,0,1.1,0,1.7,0.2c0.5,0.1,1,0.3,1.4,0.6c0.4,0.3,0.8,0.6,1,1.1c0.3,0.4,0.4,1,0.4,1.6l-2.4,0
			c0-0.3-0.1-0.6-0.2-0.8c-0.1-0.2-0.3-0.4-0.5-0.5c-0.2-0.1-0.4-0.2-0.7-0.3c-0.3,0-0.5-0.1-0.8-0.1c-0.2,0-0.4,0-0.6,0.1
			c-0.2,0-0.4,0.1-0.5,0.2c-0.2,0.1-0.3,0.2-0.4,0.4c-0.1,0.2-0.1,0.4-0.1,0.6c0,0.2,0,0.4,0.1,0.5c0.1,0.1,0.3,0.3,0.5,0.4
			s0.6,0.2,1,0.3s1,0.2,1.7,0.4c0.2,0,0.5,0.1,0.9,0.2c0.4,0.1,0.7,0.3,1.1,0.5s0.7,0.5,1,0.9c0.3,0.4,0.4,0.9,0.4,1.5
			c0,0.5-0.1,1-0.3,1.4c-0.2,0.4-0.5,0.8-0.9,1.1c-0.4,0.3-0.9,0.6-1.4,0.8c-0.6,0.2-1.2,0.3-2,0.3c-0.6,0-1.2-0.1-1.8-0.2
			c-0.6-0.1-1.1-0.4-1.5-0.7c-0.4-0.3-0.8-0.7-1.1-1.2c-0.3-0.5-0.4-1.1-0.4-1.8l2.4,0C67.1,162.2,67.2,162.5,67.4,162.8z"/>
		<path fill="#85230D" d="M77.4,154.2l0.1,4.2h0c0.3-0.5,0.6-0.8,1.1-1c0.4-0.2,0.9-0.3,1.3-0.3c0.6,0,1.1,0.1,1.5,0.2
			c0.4,0.2,0.7,0.4,0.9,0.7c0.2,0.3,0.4,0.6,0.5,1c0.1,0.4,0.1,0.9,0.2,1.4l0.1,5l-2.2,0l-0.1-4.5c0-0.7-0.1-1.2-0.3-1.5
			c-0.2-0.3-0.6-0.5-1.1-0.5c-0.6,0-1,0.2-1.3,0.6c-0.3,0.4-0.4,1-0.4,1.8l0.1,4.2l-2.2,0l-0.2-11.1L77.4,154.2z"/>
		<path fill="#85230D" d="M84.6,159.5c0.2-0.5,0.5-1,0.8-1.4c0.4-0.4,0.8-0.7,1.3-0.9c0.5-0.2,1.1-0.3,1.7-0.3s1.2,0.1,1.7,0.3
			c0.5,0.2,1,0.5,1.3,0.8c0.4,0.4,0.7,0.8,0.9,1.3s0.3,1.1,0.3,1.7c0,0.6-0.1,1.2-0.3,1.8c-0.2,0.5-0.5,1-0.8,1.3
			c-0.4,0.4-0.8,0.7-1.3,0.9s-1.1,0.3-1.7,0.3s-1.2-0.1-1.7-0.3c-0.5-0.2-1-0.5-1.3-0.8c-0.4-0.4-0.7-0.8-0.9-1.3
			c-0.2-0.5-0.3-1.1-0.3-1.7C84.3,160.6,84.4,160,84.6,159.5z M86.7,162.1c0.1,0.3,0.2,0.6,0.3,0.8c0.2,0.2,0.4,0.4,0.6,0.6
			c0.3,0.1,0.6,0.2,0.9,0.2s0.7-0.1,0.9-0.2c0.3-0.1,0.5-0.3,0.6-0.6c0.1-0.2,0.2-0.5,0.3-0.8c0.1-0.3,0.1-0.6,0.1-0.9
			c0-0.3,0-0.6-0.1-0.9c-0.1-0.3-0.2-0.6-0.3-0.8c-0.2-0.2-0.4-0.4-0.6-0.6c-0.3-0.1-0.6-0.2-0.9-0.2s-0.7,0.1-0.9,0.2
			c-0.2,0.2-0.4,0.4-0.6,0.6c-0.1,0.2-0.2,0.5-0.3,0.8c-0.1,0.3-0.1,0.6-0.1,1C86.6,161.5,86.6,161.8,86.7,162.1z"/>
		<path fill="#85230D" d="M94.4,158.2c0.2-0.3,0.5-0.6,0.9-0.8c0.3-0.2,0.7-0.4,1.2-0.5c0.4-0.1,0.9-0.1,1.3-0.2
			c0.4,0,0.8,0,1.2,0.1s0.8,0.2,1.1,0.3c0.3,0.2,0.6,0.4,0.9,0.7c0.2,0.3,0.3,0.7,0.3,1.2l0.1,4.2c0,0.4,0,0.7,0.1,1
			c0,0.3,0.1,0.6,0.2,0.7l-2.2,0c0-0.1-0.1-0.3-0.1-0.4c0-0.1,0-0.3-0.1-0.4c-0.3,0.4-0.8,0.6-1.2,0.8c-0.5,0.2-1,0.2-1.5,0.2
			c-0.4,0-0.7,0-1.1-0.1c-0.3-0.1-0.6-0.2-0.9-0.4c-0.3-0.2-0.5-0.4-0.6-0.7c-0.1-0.3-0.2-0.7-0.2-1.1c0-0.5,0.1-0.8,0.2-1.1
			c0.2-0.3,0.4-0.5,0.6-0.7c0.3-0.2,0.5-0.3,0.9-0.4c0.3-0.1,0.7-0.2,1-0.2c0.3-0.1,0.7-0.1,1-0.1s0.6-0.1,0.9-0.2
			c0.2-0.1,0.4-0.2,0.6-0.3c0.1-0.1,0.2-0.3,0.2-0.5c0-0.2,0-0.4-0.1-0.6c-0.1-0.1-0.2-0.2-0.3-0.3c-0.1-0.1-0.3-0.1-0.5-0.1
			c-0.2,0-0.4,0-0.6,0c-0.4,0-0.8,0.1-1,0.3c-0.2,0.2-0.4,0.5-0.4,0.9l-2.2,0C94,159,94.1,158.5,94.4,158.2z M98.8,161.2
			c-0.1,0-0.3,0.1-0.5,0.1s-0.3,0.1-0.5,0.1c-0.2,0-0.4,0.1-0.5,0.1c-0.2,0-0.3,0.1-0.5,0.1c-0.2,0.1-0.3,0.1-0.4,0.2
			c-0.1,0.1-0.2,0.2-0.3,0.3c-0.1,0.1-0.1,0.3-0.1,0.5c0,0.2,0,0.4,0.1,0.5c0.1,0.1,0.2,0.2,0.3,0.3c0.1,0.1,0.3,0.1,0.4,0.2
			s0.3,0,0.5,0c0.4,0,0.8-0.1,1-0.2c0.2-0.1,0.4-0.3,0.5-0.5s0.2-0.4,0.2-0.6s0-0.4,0-0.5l0-0.8C99,161.1,98.9,161.2,98.8,161.2z"/>
		<path fill="#85230D" d="M105.2,153.7l0.2,11.1l-2.2,0l-0.2-11.1L105.2,153.7z"/>
		<path fill="#85230D" d="M109.1,156.7l0,1.1l0,0c0.3-0.4,0.6-0.7,1-1c0.4-0.2,0.9-0.4,1.4-0.4c0.5,0,1,0.1,1.4,0.3
			c0.4,0.2,0.8,0.5,1,1c0.2-0.4,0.6-0.7,1-1c0.4-0.3,0.9-0.4,1.4-0.4c0.4,0,0.8,0,1.2,0.1c0.4,0.1,0.7,0.3,0.9,0.5
			c0.3,0.2,0.5,0.5,0.6,0.9c0.2,0.4,0.2,0.8,0.2,1.3l0.1,5.4l-2.2,0l-0.1-4.6c0-0.3,0-0.5,0-0.8s-0.1-0.4-0.2-0.6
			c-0.1-0.2-0.2-0.3-0.4-0.4c-0.2-0.1-0.4-0.1-0.7-0.1c-0.3,0-0.6,0.1-0.8,0.2c-0.2,0.1-0.3,0.3-0.4,0.5c-0.1,0.2-0.2,0.4-0.2,0.7
			c0,0.2,0,0.5,0,0.7l0.1,4.5l-2.2,0l-0.1-4.5c0-0.2,0-0.5,0-0.7c0-0.2-0.1-0.4-0.1-0.6c-0.1-0.2-0.2-0.4-0.4-0.5
			c-0.2-0.1-0.5-0.2-0.8-0.2c-0.1,0-0.2,0-0.4,0.1c-0.2,0-0.3,0.1-0.5,0.3c-0.2,0.1-0.3,0.3-0.4,0.6c-0.1,0.2-0.2,0.6-0.2,1l0.1,4.7
			l-2.2,0l-0.1-8.1L109.1,156.7z"/>
		<path fill="#85230D" d="M121.2,158.8c0.2-0.5,0.5-1,0.8-1.4s0.8-0.7,1.3-0.9c0.5-0.2,1.1-0.3,1.7-0.3s1.2,0.1,1.7,0.3
			c0.5,0.2,1,0.5,1.3,0.8s0.7,0.8,0.9,1.3s0.3,1.1,0.3,1.7c0,0.6-0.1,1.2-0.3,1.8c-0.2,0.5-0.5,1-0.8,1.3c-0.4,0.4-0.8,0.7-1.3,0.9
			c-0.5,0.2-1.1,0.3-1.7,0.3s-1.2-0.1-1.7-0.3c-0.5-0.2-1-0.5-1.3-0.8c-0.4-0.4-0.7-0.8-0.9-1.3c-0.2-0.5-0.3-1.1-0.3-1.7
			C120.9,159.9,121,159.3,121.2,158.8z M123.3,161.5c0.1,0.3,0.2,0.6,0.3,0.8c0.2,0.2,0.4,0.4,0.6,0.6c0.3,0.1,0.6,0.2,0.9,0.2
			s0.7-0.1,0.9-0.2c0.3-0.2,0.5-0.3,0.6-0.6c0.1-0.2,0.2-0.5,0.3-0.8c0.1-0.3,0.1-0.6,0.1-0.9c0-0.3,0-0.6-0.1-0.9
			c-0.1-0.3-0.2-0.6-0.3-0.8c-0.2-0.2-0.4-0.4-0.6-0.6c-0.3-0.1-0.6-0.2-0.9-0.2s-0.7,0.1-0.9,0.2c-0.2,0.2-0.4,0.4-0.6,0.6
			c-0.1,0.2-0.2,0.5-0.3,0.8c-0.1,0.3-0.1,0.6-0.1,1C123.1,160.9,123.2,161.2,123.3,161.5z"/>
		<path fill="#85230D" d="M132.7,156.3l0,1.1l0,0c0.3-0.5,0.6-0.8,1.1-1c0.4-0.2,0.9-0.3,1.4-0.3c0.6,0,1.1,0.1,1.5,0.2
			s0.7,0.4,0.9,0.7c0.2,0.3,0.4,0.6,0.5,1c0.1,0.4,0.1,0.9,0.2,1.4l0.1,5l-2.2,0l-0.1-4.5c0-0.7-0.1-1.2-0.3-1.5
			c-0.2-0.3-0.6-0.5-1.1-0.5c-0.6,0-1,0.2-1.3,0.6c-0.3,0.4-0.4,1-0.4,1.8l0.1,4.2l-2.2,0l-0.1-8.1L132.7,156.3z"/>
		<path fill="#85230D" d="M144.3,156.1l0,1.5l-1.6,0l0.1,4c0,0.4,0.1,0.6,0.2,0.7c0.1,0.1,0.4,0.2,0.8,0.2c0.1,0,0.2,0,0.4,0
			c0.1,0,0.2,0,0.3-0.1l0,1.7c-0.2,0-0.4,0.1-0.6,0.1c-0.2,0-0.5,0-0.7,0c-0.3,0-0.7,0-1-0.1c-0.3,0-0.6-0.1-0.8-0.3
			c-0.2-0.1-0.4-0.3-0.6-0.6c-0.1-0.2-0.2-0.6-0.2-1l-0.1-4.8l-1.3,0l0-1.5l1.3,0l0-2.4l2.2,0l0,2.4L144.3,156.1z"/>
		<path fill="#85230D" d="M154.7,152.9c0.7,0,1.4,0.1,2,0.3c0.6,0.2,1.2,0.6,1.6,1s0.8,1,1.1,1.7c0.3,0.7,0.4,1.5,0.4,2.4
			c0,0.8-0.1,1.6-0.3,2.2c-0.2,0.7-0.5,1.3-0.9,1.8s-0.9,0.9-1.6,1.2s-1.4,0.5-2.2,0.5l-4.8,0.1l-0.2-11.1L154.7,152.9z
			 M154.6,161.9c0.4,0,0.7-0.1,1-0.2c0.3-0.1,0.6-0.3,0.9-0.6c0.3-0.3,0.5-0.6,0.6-1s0.2-0.9,0.2-1.6c0-0.6-0.1-1.1-0.2-1.5
			c-0.1-0.5-0.3-0.8-0.6-1.2c-0.3-0.3-0.6-0.6-1-0.7c-0.4-0.2-0.9-0.2-1.5-0.2l-1.7,0l0.1,7L154.6,161.9z"/>
		<path fill="#85230D" d="M163.3,155.8l0,1.5h0c0.1-0.3,0.2-0.5,0.4-0.7c0.2-0.2,0.4-0.4,0.6-0.6c0.2-0.2,0.5-0.3,0.7-0.4
			c0.3-0.1,0.5-0.1,0.8-0.1c0.1,0,0.3,0,0.5,0.1l0,2.1c-0.1,0-0.2,0-0.4,0c-0.1,0-0.3,0-0.4,0c-0.4,0-0.7,0.1-1,0.2
			s-0.5,0.3-0.7,0.6c-0.2,0.2-0.3,0.5-0.4,0.8c-0.1,0.3-0.1,0.7-0.1,1l0.1,3.6l-2.2,0l-0.1-8.1L163.3,155.8z"/>
	</g>
	<g>
		<path fill="#85230D" d="M81.5,241.9l0.1,9.1l5.4-0.1l0,2.1l-7.9,0.1L79.1,242L81.5,241.9z"/>
		<path fill="#85230D" d="M88.5,246.1c0.2-0.3,0.5-0.6,0.9-0.8c0.3-0.2,0.7-0.4,1.2-0.5c0.4-0.1,0.9-0.1,1.3-0.2
			c0.4,0,0.8,0,1.2,0.1c0.4,0.1,0.8,0.2,1.1,0.3c0.3,0.2,0.6,0.4,0.9,0.7c0.2,0.3,0.3,0.7,0.3,1.2l0.1,4.2c0,0.4,0,0.7,0.1,1
			c0,0.3,0.1,0.6,0.2,0.7l-2.2,0c0-0.1-0.1-0.3-0.1-0.4c0-0.1,0-0.3-0.1-0.4c-0.3,0.4-0.8,0.6-1.2,0.8c-0.5,0.2-1,0.2-1.5,0.2
			c-0.4,0-0.7,0-1.1-0.1c-0.3-0.1-0.6-0.2-0.9-0.4c-0.3-0.2-0.5-0.4-0.6-0.7c-0.1-0.3-0.2-0.7-0.2-1.1c0-0.5,0.1-0.8,0.2-1.1
			c0.2-0.3,0.4-0.5,0.6-0.7c0.3-0.2,0.5-0.3,0.9-0.4c0.3-0.1,0.7-0.2,1-0.2c0.3-0.1,0.7-0.1,1-0.1c0.3,0,0.6-0.1,0.9-0.2
			c0.2-0.1,0.4-0.2,0.6-0.3c0.1-0.1,0.2-0.3,0.2-0.5c0-0.2,0-0.4-0.1-0.6c-0.1-0.1-0.2-0.2-0.3-0.3c-0.1-0.1-0.3-0.1-0.5-0.1
			c-0.2,0-0.4,0-0.6,0c-0.4,0-0.8,0.1-1,0.3c-0.2,0.2-0.4,0.5-0.4,0.9l-2.2,0C88.1,246.8,88.2,246.4,88.5,246.1z M92.9,249.1
			c-0.1,0-0.3,0.1-0.5,0.1c-0.2,0-0.3,0.1-0.5,0.1c-0.2,0-0.4,0.1-0.5,0.1c-0.2,0-0.3,0.1-0.5,0.1c-0.2,0.1-0.3,0.1-0.4,0.2
			c-0.1,0.1-0.2,0.2-0.3,0.3c-0.1,0.1-0.1,0.3-0.1,0.5c0,0.2,0,0.4,0.1,0.5c0.1,0.1,0.2,0.2,0.3,0.3s0.3,0.1,0.4,0.2
			c0.2,0,0.3,0,0.5,0c0.4,0,0.8-0.1,1-0.2c0.2-0.1,0.4-0.3,0.5-0.5c0.1-0.2,0.2-0.4,0.2-0.6c0-0.2,0-0.4,0-0.5l0-0.8
			C93.1,249,93,249.1,92.9,249.1z"/>
		<path fill="#85230D" d="M104.1,252.7l-1.5-5.4l0,0l-1.3,5.4l-2.3,0l-2.7-8l2.3,0l1.6,5.4h0l1.2-5.5l2.1,0l1.5,5.4l0,0l1.4-5.5
			l2.3,0l-2.4,8.1L104.1,252.7z"/>
		<path fill="#85230D" d="M111.9,244.5l0,1.1h0c0.3-0.5,0.6-0.8,1.1-1c0.4-0.2,0.9-0.3,1.4-0.3c0.6,0,1.1,0.1,1.5,0.2
			c0.4,0.2,0.7,0.4,0.9,0.7c0.2,0.3,0.4,0.6,0.5,1c0.1,0.4,0.1,0.9,0.2,1.4l0.1,5l-2.2,0l-0.1-4.5c0-0.7-0.1-1.2-0.3-1.5
			c-0.2-0.3-0.6-0.5-1.1-0.5c-0.6,0-1,0.2-1.3,0.6c-0.3,0.4-0.4,1-0.4,1.8l0.1,4.2l-2.2,0l-0.1-8.1L111.9,244.5z"/>
		<path fill="#85230D" d="M121.2,244.3l0,1.1l0,0c0.3-0.4,0.6-0.7,1-1c0.4-0.2,0.9-0.4,1.4-0.4c0.5,0,1,0.1,1.4,0.3
			c0.4,0.2,0.7,0.5,1,1c0.2-0.4,0.6-0.7,1-1c0.4-0.3,0.9-0.4,1.4-0.4c0.4,0,0.8,0,1.2,0.1c0.4,0.1,0.7,0.3,0.9,0.5
			c0.3,0.2,0.5,0.5,0.6,0.9c0.2,0.4,0.2,0.8,0.2,1.3l0.1,5.4l-2.2,0l-0.1-4.6c0-0.3,0-0.5,0-0.8c0-0.2-0.1-0.4-0.2-0.6
			c-0.1-0.2-0.2-0.3-0.4-0.4c-0.2-0.1-0.4-0.1-0.7-0.1c-0.3,0-0.6,0.1-0.8,0.2c-0.2,0.1-0.3,0.3-0.4,0.5c-0.1,0.2-0.2,0.4-0.2,0.7
			c0,0.2,0,0.5,0,0.7l0.1,4.5l-2.2,0l-0.1-4.5c0-0.2,0-0.5,0-0.7c0-0.2-0.1-0.4-0.1-0.6c-0.1-0.2-0.2-0.4-0.4-0.5s-0.5-0.2-0.8-0.2
			c-0.1,0-0.2,0-0.4,0.1c-0.2,0-0.3,0.1-0.5,0.3c-0.2,0.1-0.3,0.3-0.4,0.6c-0.1,0.2-0.2,0.6-0.2,1l0.1,4.7l-2.2,0l-0.1-8.1
			L121.2,244.3z"/>
		<path fill="#85230D" d="M133.2,246.4c0.2-0.5,0.5-1,0.8-1.4c0.4-0.4,0.8-0.7,1.3-0.9c0.5-0.2,1.1-0.3,1.7-0.3s1.2,0.1,1.7,0.3
			c0.5,0.2,1,0.5,1.3,0.8c0.4,0.4,0.7,0.8,0.9,1.3c0.2,0.5,0.3,1.1,0.3,1.7c0,0.6-0.1,1.2-0.3,1.7c-0.2,0.5-0.5,1-0.8,1.3
			c-0.4,0.4-0.8,0.7-1.3,0.9c-0.5,0.2-1.1,0.3-1.7,0.3s-1.2-0.1-1.7-0.3c-0.5-0.2-1-0.5-1.3-0.8c-0.4-0.4-0.7-0.8-0.9-1.3
			c-0.2-0.5-0.3-1.1-0.3-1.7C132.9,247.5,133,246.9,133.2,246.4z M135.3,249.1c0.1,0.3,0.2,0.6,0.3,0.8c0.2,0.2,0.4,0.4,0.6,0.6
			c0.3,0.1,0.6,0.2,0.9,0.2s0.7-0.1,0.9-0.2c0.3-0.1,0.5-0.3,0.6-0.6s0.2-0.5,0.3-0.8c0.1-0.3,0.1-0.6,0.1-0.9c0-0.3,0-0.6-0.1-0.9
			c-0.1-0.3-0.2-0.6-0.3-0.8c-0.2-0.2-0.4-0.4-0.6-0.6c-0.3-0.1-0.6-0.2-0.9-0.2s-0.7,0.1-0.9,0.2c-0.2,0.2-0.4,0.4-0.6,0.6
			c-0.1,0.2-0.2,0.5-0.3,0.8c-0.1,0.3-0.1,0.6-0.1,1C135.2,248.5,135.2,248.8,135.3,249.1z"/>
		<path fill="#85230D" d="M144.7,243.9l0,1.1l0,0c0.3-0.5,0.6-0.8,1.1-1c0.4-0.2,0.9-0.3,1.4-0.3c0.6,0,1.1,0.1,1.5,0.2
			c0.4,0.2,0.7,0.4,0.9,0.7c0.2,0.3,0.4,0.6,0.5,1c0.1,0.4,0.1,0.9,0.2,1.4l0.1,5l-2.2,0l-0.1-4.5c0-0.7-0.1-1.2-0.3-1.5
			c-0.2-0.3-0.6-0.5-1.1-0.5c-0.6,0-1,0.2-1.3,0.6c-0.3,0.4-0.4,1-0.4,1.8l0.1,4.2l-2.2,0l-0.1-8.1L144.7,243.9z"/>
		<path fill="#85230D" d="M156.3,243.8l0,1.5l-1.6,0l0.1,4c0,0.4,0.1,0.6,0.2,0.7c0.1,0.1,0.4,0.2,0.8,0.2c0.1,0,0.2,0,0.4,0
			c0.1,0,0.2,0,0.3-0.1l0,1.7c-0.2,0-0.4,0.1-0.6,0.1c-0.2,0-0.5,0-0.7,0c-0.3,0-0.7,0-1-0.1c-0.3,0-0.6-0.1-0.8-0.3
			c-0.2-0.1-0.4-0.3-0.6-0.6c-0.1-0.2-0.2-0.6-0.2-1l-0.1-4.8l-1.3,0l0-1.5l1.3,0l0-2.4l2.2,0l0,2.4L156.3,243.8z"/>
		<path fill="#85230D" d="M167.4,240.5l4.3,11.1l-2.5,0l-0.9-2.5l-4.2,0.1l-0.8,2.5l-2.5,0l4-11.2L167.4,240.5z M167.7,247.3
			l-1.5-4.1h0l-1.4,4.1L167.7,247.3z"/>
		<path fill="#85230D" d="M174.2,251.5l-2.9-8l2.3,0l1.8,5.5l0,0l1.6-5.5l2.2,0l-2.6,8.1L174.2,251.5z"/>
		<path fill="#85230D" d="M182.7,249.4c0.3,0.3,0.8,0.5,1.4,0.5c0.4,0,0.8-0.1,1.1-0.4c0.3-0.2,0.5-0.5,0.6-0.7l1.9,0
			c-0.3,1-0.8,1.7-1.4,2.1c-0.6,0.4-1.4,0.6-2.3,0.7c-0.6,0-1.2-0.1-1.7-0.3c-0.5-0.2-0.9-0.5-1.3-0.8s-0.6-0.8-0.8-1.3
			c-0.2-0.5-0.3-1.1-0.3-1.7c0-0.6,0.1-1.2,0.3-1.7c0.2-0.5,0.5-1,0.8-1.4c0.4-0.4,0.8-0.7,1.3-0.9s1.1-0.3,1.7-0.4
			c0.7,0,1.3,0.1,1.8,0.4c0.5,0.3,0.9,0.6,1.3,1c0.3,0.4,0.6,0.9,0.7,1.5c0.2,0.6,0.2,1.2,0.2,1.8l-5.8,0.1
			C182.1,248.6,182.3,249.1,182.7,249.4z M185.1,245.2c-0.3-0.3-0.7-0.4-1.2-0.4c-0.4,0-0.6,0.1-0.9,0.2c-0.2,0.1-0.4,0.3-0.6,0.5
			c-0.1,0.2-0.2,0.4-0.3,0.6c-0.1,0.2-0.1,0.4-0.1,0.5l3.6-0.1C185.5,245.9,185.4,245.5,185.1,245.2z"/>
	</g>
	<g>
		<path fill="#85230D" d="M66.4,38l7.4-2.3l0,0l-7.7-1.4L66,31.7l10.9-3.6l0.1,2.4l-7.5,2.2l0,0l7.7,1.5l0.1,2.3l-7.5,2.4l0,0
			l7.8,1.4l0.1,2.4l-11.3-2.3L66.4,38z"/>
		<path fill="#85230D" d="M72.5,43.1c0.5,0.2,1,0.4,1.4,0.8c0.4,0.3,0.7,0.8,0.9,1.3c0.2,0.5,0.4,1.1,0.4,1.7c0,0.6,0,1.2-0.2,1.7
			c-0.2,0.5-0.4,1-0.8,1.4c-0.3,0.4-0.8,0.7-1.3,0.9c-0.5,0.2-1.1,0.4-1.7,0.4c-0.6,0-1.2,0-1.8-0.2c-0.5-0.2-1-0.4-1.4-0.8
			c-0.4-0.3-0.7-0.8-0.9-1.3c-0.2-0.5-0.4-1.1-0.4-1.7c0-0.6,0-1.2,0.2-1.7c0.2-0.5,0.4-1,0.8-1.4c0.3-0.4,0.8-0.7,1.3-0.9
			c0.5-0.2,1.1-0.4,1.7-0.4C71.3,42.8,71.9,42.9,72.5,43.1z M69.9,45.2c-0.3,0.1-0.6,0.2-0.8,0.4c-0.2,0.2-0.4,0.4-0.5,0.6
			c-0.1,0.3-0.2,0.6-0.2,0.9c0,0.4,0.1,0.7,0.3,0.9c0.2,0.2,0.4,0.4,0.6,0.6c0.3,0.1,0.5,0.2,0.8,0.3c0.3,0,0.6,0.1,0.9,0
			c0.3,0,0.6-0.1,0.9-0.2s0.6-0.2,0.8-0.4c0.2-0.2,0.4-0.4,0.5-0.6c0.1-0.3,0.2-0.6,0.2-1c0-0.4-0.1-0.7-0.3-0.9
			c-0.2-0.2-0.4-0.4-0.6-0.6c-0.2-0.1-0.5-0.2-0.8-0.3s-0.6-0.1-1,0C70.5,45.1,70.2,45.2,69.9,45.2z"/>
		<path fill="#85230D" d="M73,52.6c0.5,0.2,1,0.4,1.4,0.8c0.4,0.3,0.7,0.8,0.9,1.3c0.2,0.5,0.4,1.1,0.4,1.7s0,1.2-0.2,1.7
			c-0.2,0.5-0.4,1-0.8,1.4c-0.3,0.4-0.8,0.7-1.3,0.9c-0.5,0.2-1.1,0.4-1.7,0.4c-0.6,0-1.2,0-1.8-0.2c-0.5-0.2-1-0.4-1.4-0.8
			c-0.4-0.3-0.7-0.8-0.9-1.3c-0.2-0.5-0.4-1.1-0.4-1.7s0-1.2,0.2-1.7c0.2-0.5,0.4-1,0.8-1.4c0.3-0.4,0.8-0.7,1.3-0.9
			c0.5-0.2,1.1-0.4,1.7-0.4C71.9,52.3,72.5,52.4,73,52.6z M70.5,54.7c-0.3,0.1-0.6,0.2-0.8,0.4c-0.2,0.2-0.4,0.4-0.5,0.6
			C69,56,68.9,56.3,69,56.7c0,0.4,0.1,0.7,0.3,0.9c0.2,0.2,0.4,0.4,0.6,0.6c0.3,0.1,0.5,0.2,0.8,0.3c0.3,0,0.6,0.1,0.9,0
			c0.3,0,0.6-0.1,0.9-0.2c0.3-0.1,0.6-0.2,0.8-0.4c0.2-0.2,0.4-0.4,0.5-0.6c0.1-0.3,0.2-0.6,0.2-1c0-0.4-0.1-0.7-0.3-0.9
			c-0.2-0.2-0.4-0.4-0.6-0.6c-0.2-0.1-0.5-0.2-0.8-0.3c-0.3,0-0.6-0.1-1,0C71.1,54.6,70.8,54.7,70.5,54.7z"/>
		<path fill="#85230D" d="M69.2,68c-0.5-0.2-0.8-0.6-1-1c-0.2-0.4-0.3-0.9-0.4-1.4c0-0.6,0-1.1,0.3-1.6c0.2-0.5,0.5-0.9,0.9-1.2
			c0.4-0.3,0.8-0.6,1.3-0.8c0.5-0.2,1-0.3,1.6-0.3c0.5,0,1.1,0,1.6,0.1s1,0.3,1.4,0.6c0.4,0.3,0.7,0.6,1,1.1
			c0.3,0.4,0.4,0.9,0.4,1.5c0,0.5,0,0.9-0.2,1.4c-0.2,0.4-0.5,0.8-0.8,1.1l0,0l4-0.2l0.1,2.2l-11.1,0.7l-0.1-2.1L69.2,68L69.2,68z
			 M73.2,67.7c0.3-0.1,0.6-0.2,0.8-0.4c0.2-0.2,0.4-0.4,0.5-0.6c0.1-0.2,0.2-0.6,0.2-0.9c0-0.4-0.1-0.7-0.3-0.9
			c-0.2-0.2-0.4-0.4-0.6-0.6c-0.2-0.1-0.5-0.2-0.8-0.3c-0.3,0-0.6-0.1-1,0c-0.3,0-0.6,0.1-0.9,0.2c-0.3,0.1-0.6,0.2-0.8,0.4
			c-0.2,0.2-0.4,0.4-0.6,0.6c-0.1,0.3-0.2,0.6-0.2,0.9c0,0.4,0.1,0.7,0.3,0.9c0.2,0.2,0.4,0.4,0.6,0.5c0.3,0.1,0.5,0.2,0.9,0.3
			c0.3,0,0.6,0.1,1,0C72.6,67.8,72.9,67.8,73.2,67.7z"/>
		<path fill="#85230D" d="M68.6,73.9l7.9-3.2l0.1,2.3l-5.4,2l0,0l5.6,1.4l0.1,2.2l-8.2-2.2L68.6,73.9z"/>
		<path fill="#85230D" d="M77.1,81.8l-8,0.5L68.9,80l8-0.5L77.1,81.8z M78.2,79.5l1.8-0.1l0.1,2.2l-1.8,0.1L78.2,79.5z"/>
		<path fill="#85230D" d="M71.2,86.2c-0.3,0.4-0.4,0.8-0.4,1.5c0,0.4,0.2,0.8,0.4,1.1c0.2,0.3,0.5,0.5,0.7,0.5l0.1,1.9
			c-1-0.3-1.7-0.7-2.2-1.3c-0.5-0.6-0.7-1.4-0.8-2.3c0-0.6,0-1.2,0.2-1.7c0.2-0.5,0.4-1,0.8-1.3c0.4-0.4,0.8-0.7,1.3-0.9
			c0.5-0.2,1.1-0.4,1.7-0.4c0.6,0,1.2,0,1.7,0.2c0.5,0.2,1,0.4,1.4,0.8c0.4,0.3,0.7,0.8,1,1.2c0.2,0.5,0.4,1,0.4,1.7
			c0,0.7-0.1,1.3-0.3,1.8s-0.6,1-1,1.3c-0.4,0.4-0.9,0.6-1.5,0.8s-1.2,0.3-1.8,0.3l-0.4-5.8C72.1,85.7,71.6,85.9,71.2,86.2z
			 M75.6,88.5c0.3-0.3,0.4-0.7,0.4-1.2c0-0.4-0.1-0.6-0.2-0.9s-0.3-0.4-0.5-0.5c-0.2-0.1-0.4-0.2-0.6-0.3c-0.2,0-0.4-0.1-0.5-0.1
			l0.2,3.6C74.9,89,75.4,88.8,75.6,88.5z"/>
		<path fill="#85230D" d="M70.1,99.8l5.3-1.8l0,0L70,97l-0.1-2.3l7.9-3l0.1,2.3l-5.4,1.8l0,0l5.5,1l0.1,2.1l-5.4,1.7l0,0l5.5,1.1
			l0.1,2.3l-8.2-2L70.1,99.8z"/>
		<path fill="#85230D" d="M82.2,115l-10.9,4.8l-0.2-2.5l2.4-1l-0.3-4.2l-2.5-0.7l-0.1-2.5l11.4,3.5L82.2,115z M75.4,115.5l4-1.6l0,0
			l-4.2-1.2L75.4,115.5z"/>
		<path fill="#85230D" d="M71.5,122.3l7.9-3.2l0.1,2.3l-5.4,2l0,0l5.6,1.4l0.1,2.2l-8.2-2.2L71.5,122.3z"/>
		<path fill="#85230D" d="M74,130.6c-0.3,0.4-0.4,0.8-0.4,1.5c0,0.4,0.2,0.8,0.4,1.1c0.2,0.3,0.5,0.5,0.7,0.5l0.1,1.9
			c-1-0.3-1.7-0.7-2.2-1.3c-0.5-0.6-0.7-1.4-0.8-2.3c0-0.6,0-1.2,0.2-1.7c0.2-0.5,0.4-1,0.8-1.3s0.8-0.7,1.3-0.9
			c0.5-0.2,1.1-0.4,1.7-0.4c0.6,0,1.2,0,1.7,0.2c0.5,0.2,1,0.4,1.4,0.8c0.4,0.3,0.7,0.8,1,1.2c0.2,0.5,0.4,1,0.4,1.7
			c0,0.7-0.1,1.3-0.3,1.8c-0.2,0.5-0.6,1-1,1.3c-0.4,0.4-0.9,0.6-1.5,0.8s-1.2,0.3-1.8,0.3l-0.4-5.8C74.8,130,74.3,130.3,74,130.6z
			 M78.3,132.8c0.3-0.3,0.4-0.7,0.4-1.2c0-0.4-0.1-0.6-0.2-0.9s-0.3-0.4-0.5-0.5c-0.2-0.1-0.4-0.2-0.6-0.3s-0.4-0.1-0.5-0.1l0.2,3.6
			C77.7,133.3,78.1,133.1,78.3,132.8z"/>
	</g>
	<g>
		<path fill="#85230D" d="M186.3,53.1l-7.5,3.1l0,0l7.8,1.9l0.2,3.4l-11.1,0.7l-0.2-2.3l7.9-0.5l0,0l-8-2.2l-0.1-1.9l7.6-3.2l0,0
			l-7.8,0.5l-0.2-2.3l11.1-0.7L186.3,53.1z"/>
		<path fill="#85230D" d="M181.6,63.9c0.5,0.2,1,0.4,1.4,0.8c0.4,0.3,0.7,0.8,0.9,1.2c0.2,0.5,0.4,1.1,0.4,1.7c0,0.6,0,1.2-0.2,1.7
			c-0.2,0.5-0.4,1-0.8,1.4c-0.3,0.4-0.8,0.7-1.3,0.9c-0.5,0.2-1.1,0.4-1.7,0.4s-1.2,0-1.8-0.2c-0.5-0.2-1-0.4-1.4-0.8
			c-0.4-0.3-0.7-0.8-0.9-1.3c-0.2-0.5-0.4-1.1-0.4-1.7c0-0.6,0-1.2,0.2-1.7c0.2-0.5,0.4-1,0.8-1.4c0.3-0.4,0.8-0.7,1.3-0.9
			c0.5-0.2,1.1-0.4,1.7-0.4S181.1,63.7,181.6,63.9z M179.1,66.1c-0.3,0.1-0.6,0.2-0.8,0.4c-0.2,0.2-0.4,0.4-0.5,0.6
			c-0.1,0.3-0.2,0.6-0.2,0.9s0.1,0.7,0.3,0.9c0.2,0.2,0.4,0.4,0.6,0.6c0.3,0.1,0.5,0.2,0.8,0.3c0.3,0,0.6,0.1,0.9,0
			c0.3,0,0.6-0.1,0.9-0.2c0.3-0.1,0.6-0.2,0.8-0.4c0.2-0.2,0.4-0.4,0.5-0.6c0.1-0.3,0.2-0.6,0.2-1s-0.1-0.7-0.3-0.9
			c-0.2-0.2-0.4-0.4-0.6-0.6c-0.2-0.1-0.5-0.2-0.8-0.3c-0.3,0-0.6-0.1-1,0C179.7,66,179.4,66,179.1,66.1z"/>
		<path fill="#85230D" d="M184.7,75.3l-1.1,0.1l0,0c0.5,0.2,0.8,0.6,1.1,1c0.2,0.4,0.4,0.9,0.4,1.3c0,0.6,0,1.1-0.1,1.5
			c-0.1,0.4-0.3,0.7-0.6,0.9c-0.3,0.2-0.6,0.4-1,0.5c-0.4,0.1-0.9,0.2-1.4,0.2l-4.9,0.3l-0.1-2.2l4.5-0.3c0.7,0,1.2-0.2,1.5-0.4
			c0.3-0.2,0.5-0.6,0.4-1.1c0-0.6-0.2-1-0.6-1.3c-0.4-0.2-1-0.3-1.8-0.3l-4.2,0.3l-0.1-2.2l8-0.5L184.7,75.3z"/>
		<path fill="#85230D" d="M185.5,86.8l-1.5,0.1l-0.1-1.6l-4,0.3c-0.4,0-0.6,0.1-0.7,0.2c-0.1,0.1-0.2,0.4-0.1,0.8c0,0.1,0,0.2,0,0.4
			c0,0.1,0,0.2,0.1,0.3l-1.7,0.1c0-0.2-0.1-0.4-0.1-0.6c0-0.2,0-0.5-0.1-0.7c0-0.3,0-0.7,0-1c0-0.3,0.1-0.6,0.2-0.8
			c0.1-0.2,0.3-0.4,0.5-0.6c0.2-0.2,0.6-0.2,1-0.3l4.7-0.3l-0.1-1.3l1.5-0.1l0.1,1.3l2.4-0.2l0.1,2.2l-2.4,0.2L185.5,86.8z"/>
		<path fill="#85230D" d="M177.6,90.4l7.9-3.3l0.2,2.3l-5.4,2.1l0,0l5.6,1.3l0.1,2.2l-8.2-2.2L177.6,90.4z"/>
		<path fill="#85230D" d="M186.2,98.3l-8,0.5l-0.1-2.2l8-0.5L186.2,98.3z M187.3,96l1.8-0.1l0.1,2.2l-1.8,0.1L187.3,96z"/>
		<path fill="#85230D" d="M180.4,102.8c-0.3,0.4-0.4,0.8-0.4,1.5c0,0.4,0.2,0.8,0.4,1.1c0.2,0.3,0.5,0.5,0.7,0.5l0.1,1.9
			c-1-0.2-1.7-0.7-2.2-1.3c-0.5-0.6-0.7-1.4-0.8-2.3c0-0.6,0-1.2,0.2-1.7c0.2-0.5,0.4-1,0.8-1.3c0.3-0.4,0.8-0.7,1.3-0.9
			s1.1-0.4,1.7-0.4c0.6,0,1.2,0,1.7,0.2c0.5,0.2,1,0.4,1.4,0.8c0.4,0.3,0.7,0.7,1,1.2c0.3,0.5,0.4,1,0.4,1.6c0,0.7,0,1.3-0.3,1.8
			c-0.2,0.5-0.6,1-1,1.3c-0.4,0.4-0.9,0.6-1.5,0.8c-0.6,0.2-1.2,0.3-1.8,0.3l-0.4-5.8C181.2,102.2,180.7,102.4,180.4,102.8z
			 M184.8,105c0.3-0.3,0.4-0.7,0.4-1.2c0-0.4-0.1-0.6-0.2-0.9c-0.1-0.2-0.3-0.4-0.5-0.5s-0.4-0.2-0.6-0.3c-0.2,0-0.4-0.1-0.5-0.1
			l0.2,3.6C184.1,105.5,184.5,105.3,184.8,105z"/>
		<path fill="#85230D" d="M179.4,116.4l5.3-1.8l0,0l-5.5-1l-0.2-2.3l7.9-3.1l0.2,2.3l-5.4,1.8l0,0l5.5,1l0.1,2.1l-5.4,1.7l0,0
			l5.5,1.1l0.2,2.3l-8.2-2L179.4,116.4z"/>
		<path fill="#85230D" d="M182.9,128.4c-0.3,0.2-0.4,0.3-0.6,0.6c-0.1,0.2-0.2,0.5-0.3,0.8c-0.1,0.3-0.1,0.6-0.1,0.9
			c0,0.2,0,0.5,0.1,0.7c0.1,0.2,0.1,0.5,0.3,0.7c0.1,0.2,0.3,0.4,0.5,0.5c0.2,0.1,0.4,0.2,0.7,0.2c0.3,0,0.5-0.1,0.7-0.3
			c0.2-0.2,0.3-0.5,0.4-0.8c0.1-0.3,0.2-0.7,0.3-1.1c0.1-0.4,0.1-0.8,0.2-1.2c0.1-0.4,0.2-0.8,0.3-1.2c0.1-0.4,0.3-0.8,0.5-1.1
			c0.2-0.3,0.5-0.6,0.8-0.8c0.3-0.2,0.8-0.3,1.3-0.4c0.6,0,1.1,0,1.5,0.3c0.4,0.2,0.8,0.5,1.1,0.9c0.3,0.4,0.5,0.8,0.7,1.3
			s0.3,1,0.3,1.5c0,0.6,0,1.1-0.1,1.7c-0.1,0.5-0.3,1-0.5,1.5c-0.3,0.4-0.6,0.8-1,1.1c-0.4,0.3-1,0.4-1.6,0.5l-0.2-2.4
			c0.3,0,0.6-0.1,0.8-0.3c0.2-0.1,0.4-0.3,0.5-0.5c0.1-0.2,0.2-0.4,0.2-0.7c0-0.3,0-0.5,0-0.8c0-0.2,0-0.4-0.1-0.6
			c-0.1-0.2-0.1-0.4-0.3-0.5c-0.1-0.2-0.3-0.3-0.4-0.4c-0.2-0.1-0.4-0.1-0.6-0.1c-0.2,0-0.4,0.1-0.5,0.2c-0.1,0.1-0.2,0.3-0.3,0.5
			c-0.1,0.3-0.2,0.6-0.3,1c-0.1,0.4-0.2,1-0.3,1.7c0,0.2-0.1,0.5-0.2,0.9c-0.1,0.4-0.2,0.8-0.4,1.1c-0.2,0.4-0.5,0.7-0.9,1
			c-0.4,0.3-0.9,0.5-1.5,0.5c-0.5,0-1,0-1.4-0.2c-0.4-0.2-0.8-0.4-1.2-0.8c-0.3-0.4-0.6-0.8-0.8-1.4c-0.2-0.6-0.3-1.2-0.4-2
			c0-0.6,0-1.2,0.1-1.8c0.1-0.6,0.3-1.1,0.6-1.6c0.3-0.5,0.7-0.8,1.2-1.1c0.5-0.3,1.1-0.5,1.7-0.5l0.2,2.4
			C183.5,128.1,183.2,128.2,182.9,128.4z"/>
		<path fill="#85230D" d="M189,140.4l-1.5,0.1l-0.1-1.6l-4,0.3c-0.4,0-0.6,0.1-0.7,0.2c-0.1,0.1-0.2,0.4-0.1,0.8c0,0.1,0,0.2,0,0.4
			c0,0.1,0,0.2,0.1,0.3l-1.7,0.1c0-0.2-0.1-0.4-0.1-0.6c0-0.2,0-0.5-0.1-0.7c0-0.3,0-0.7,0-1s0.1-0.6,0.2-0.8
			c0.1-0.2,0.3-0.4,0.5-0.6c0.2-0.2,0.6-0.2,1-0.3l4.7-0.3l-0.1-1.3l1.5-0.1l0.1,1.3l2.4-0.2l0.1,2.2l-2.4,0.2L189,140.4z"/>
	</g>
	<g>
		<path fill="#85230D" d="M9.4,124.2c-0.2,0.2-0.4,0.4-0.6,0.6c-0.1,0.2-0.2,0.5-0.3,0.8c0,0.3,0,0.6,0,0.9c0,0.2,0.1,0.4,0.1,0.7
			c0.1,0.2,0.2,0.5,0.3,0.7s0.3,0.4,0.5,0.5s0.4,0.2,0.7,0.1c0.3,0,0.5-0.2,0.7-0.4c0.2-0.2,0.3-0.5,0.4-0.8
			c0.1-0.3,0.1-0.7,0.2-1.1c0-0.4,0.1-0.8,0.2-1.2c0-0.4,0.1-0.8,0.2-1.3c0.1-0.4,0.2-0.8,0.4-1.1c0.2-0.3,0.5-0.6,0.8-0.9
			c0.3-0.2,0.7-0.4,1.3-0.5c0.6-0.1,1.1,0,1.5,0.2s0.8,0.5,1.2,0.8c0.3,0.4,0.6,0.8,0.8,1.2c0.2,0.5,0.3,1,0.4,1.5
			c0.1,0.6,0.1,1.1,0,1.7c-0.1,0.5-0.2,1-0.4,1.5c-0.2,0.4-0.6,0.8-1,1.1s-0.9,0.5-1.6,0.6l-0.3-2.3c0.3-0.1,0.6-0.2,0.8-0.3
			s0.4-0.3,0.4-0.5c0.1-0.2,0.2-0.4,0.2-0.7c0-0.3,0-0.5,0-0.8c0-0.2-0.1-0.4-0.1-0.6s-0.2-0.4-0.3-0.5s-0.3-0.3-0.4-0.3
			s-0.4-0.1-0.6-0.1c-0.2,0-0.4,0.1-0.5,0.2c-0.1,0.1-0.2,0.3-0.3,0.5c-0.1,0.3-0.2,0.6-0.2,1c-0.1,0.4-0.1,1-0.2,1.7
			c0,0.2-0.1,0.5-0.1,0.9c-0.1,0.4-0.2,0.8-0.4,1.2c-0.2,0.4-0.5,0.7-0.8,1.1c-0.4,0.3-0.9,0.5-1.5,0.6c-0.5,0.1-1,0-1.4-0.1
			c-0.5-0.1-0.9-0.4-1.2-0.7s-0.7-0.8-0.9-1.3c-0.2-0.5-0.4-1.2-0.5-2c-0.1-0.6-0.1-1.2,0-1.8c0.1-0.6,0.2-1.1,0.5-1.6
			s0.6-0.9,1.1-1.2s1-0.5,1.7-0.6l0.3,2.3C10,123.9,9.7,124.1,9.4,124.2z"/>
		<path fill="#85230D" d="M19,133.5l-4.2,0.4l0,0c0.5,0.2,0.9,0.5,1.1,1c0.3,0.4,0.4,0.8,0.5,1.2c0.1,0.6,0,1.1-0.1,1.5
			c-0.1,0.4-0.3,0.7-0.6,1c-0.3,0.2-0.6,0.4-1,0.6c-0.4,0.1-0.8,0.2-1.3,0.3L8.5,140l-0.2-2.2l4.5-0.5c0.7-0.1,1.1-0.2,1.4-0.5
			s0.4-0.6,0.4-1.2c-0.1-0.6-0.3-1-0.7-1.2c-0.4-0.2-1-0.3-1.8-0.2l-4.2,0.4l-0.2-2.2l11.1-1.2L19,133.5z"/>
		<path fill="#85230D" d="M14.4,141.1c0.5,0.1,1,0.4,1.4,0.7c0.4,0.3,0.7,0.7,1,1.2c0.3,0.5,0.4,1,0.5,1.7c0.1,0.6,0,1.2-0.1,1.7
			c-0.2,0.5-0.4,1-0.7,1.4c-0.3,0.4-0.8,0.7-1.3,1s-1.1,0.4-1.7,0.5c-0.6,0.1-1.2,0-1.8-0.1c-0.5-0.1-1-0.4-1.4-0.7
			c-0.4-0.3-0.7-0.7-1-1.2c-0.2-0.5-0.4-1.1-0.5-1.7c-0.1-0.6,0-1.2,0.1-1.7c0.1-0.5,0.4-1,0.7-1.4s0.7-0.7,1.2-1
			c0.5-0.2,1.1-0.4,1.7-0.5C13.3,140.9,13.9,141,14.4,141.1z M11.9,143.4c-0.3,0.1-0.6,0.2-0.8,0.4c-0.2,0.2-0.4,0.4-0.5,0.7
			c-0.1,0.3-0.2,0.6-0.1,1s0.1,0.7,0.3,0.9s0.4,0.4,0.6,0.5c0.3,0.1,0.5,0.2,0.9,0.2c0.3,0,0.6,0,0.9,0c0.3,0,0.6-0.1,0.9-0.2
			c0.3-0.1,0.6-0.2,0.8-0.4c0.2-0.2,0.4-0.4,0.5-0.7c0.1-0.3,0.2-0.6,0.1-1s-0.1-0.7-0.3-0.9c-0.2-0.2-0.4-0.4-0.6-0.5
			c-0.3-0.1-0.5-0.2-0.9-0.2c-0.3,0-0.6,0-1,0C12.5,143.2,12.2,143.3,11.9,143.4z"/>
		<path fill="#85230D" d="M16.4,150.8c0.4,0.2,0.7,0.5,0.9,0.8c0.2,0.3,0.4,0.7,0.6,1.1s0.2,0.9,0.3,1.3c0,0.4,0,0.8,0,1.2
			c0,0.4-0.1,0.8-0.2,1.2c-0.1,0.4-0.3,0.7-0.6,0.9c-0.3,0.2-0.7,0.4-1.1,0.4l-4.2,0.4c-0.4,0-0.7,0.1-1,0.2s-0.6,0.2-0.7,0.3
			l-0.2-2.2c0.1-0.1,0.2-0.1,0.4-0.1c0.1,0,0.3-0.1,0.4-0.1c-0.4-0.3-0.7-0.7-0.9-1.2c-0.2-0.5-0.3-0.9-0.4-1.4c0-0.4,0-0.7,0-1.1
			c0.1-0.3,0.2-0.6,0.4-0.9s0.4-0.5,0.7-0.7c0.3-0.2,0.6-0.3,1.1-0.3c0.5,0,0.8,0,1.1,0.1c0.3,0.1,0.6,0.3,0.8,0.6
			c0.2,0.2,0.4,0.5,0.5,0.8s0.2,0.6,0.3,1s0.2,0.6,0.2,1c0.1,0.3,0.1,0.6,0.2,0.8c0.1,0.2,0.2,0.4,0.3,0.6c0.1,0.1,0.3,0.2,0.5,0.2
			c0.2,0,0.4-0.1,0.6-0.2s0.2-0.2,0.3-0.3c0.1-0.1,0.1-0.3,0.1-0.5s0-0.4,0-0.6c0-0.4-0.2-0.8-0.4-1c-0.2-0.2-0.5-0.3-1-0.3
			l-0.2-2.2C15.6,150.5,16.1,150.6,16.4,150.8z M13.7,155.4c-0.1-0.1-0.1-0.3-0.2-0.4c0-0.2-0.1-0.3-0.1-0.5s-0.1-0.3-0.1-0.5
			c0-0.2-0.1-0.3-0.2-0.5c-0.1-0.2-0.1-0.3-0.2-0.4c-0.1-0.1-0.2-0.2-0.4-0.3c-0.1-0.1-0.3-0.1-0.5-0.1c-0.2,0-0.4,0.1-0.5,0.2
			c-0.1,0.1-0.2,0.2-0.3,0.3c-0.1,0.1-0.1,0.3-0.1,0.4s0,0.3,0,0.5c0,0.4,0.1,0.8,0.3,1c0.2,0.2,0.4,0.4,0.6,0.5
			c0.2,0.1,0.4,0.1,0.6,0.2c0.2,0,0.4,0,0.5,0l0.8-0.1C13.9,155.7,13.8,155.5,13.7,155.4z"/>
		<path fill="#85230D" d="M21.7,161.3l-11.1,1l-0.2-2.2l11.1-1L21.7,161.3z"/>
		<path fill="#85230D" d="M20,174.9c0.2-0.2,0.4-0.4,0.6-0.6c0.2-0.2,0.3-0.5,0.3-0.8c0.1-0.3,0.1-0.6,0.1-0.9
			c-0.1-0.5-0.2-1-0.5-1.4s-0.6-0.6-0.9-0.8c-0.4-0.2-0.8-0.3-1.3-0.4c-0.5-0.1-0.9-0.1-1.4,0c-0.5,0-0.9,0.1-1.3,0.3
			c-0.4,0.2-0.8,0.4-1.1,0.6c-0.3,0.3-0.6,0.6-0.8,1c-0.2,0.4-0.2,0.9-0.2,1.4c0.1,0.7,0.4,1.3,0.9,1.7c0.5,0.4,1.1,0.6,1.9,0.6
			l0.2,2.4c-0.7,0-1.3-0.1-1.9-0.3c-0.6-0.2-1.1-0.5-1.5-0.9c-0.4-0.4-0.8-0.9-1-1.4c-0.3-0.5-0.4-1.2-0.5-1.8
			c-0.1-0.8,0-1.6,0.2-2.3c0.2-0.7,0.6-1.3,1-1.8c0.5-0.5,1-0.9,1.7-1.2c0.7-0.3,1.4-0.5,2.2-0.6c0.8-0.1,1.6,0,2.3,0.1
			s1.4,0.5,2,0.9c0.6,0.4,1,0.9,1.4,1.6c0.4,0.6,0.6,1.4,0.7,2.2c0.1,0.6,0,1.2-0.1,1.8s-0.3,1.1-0.6,1.5s-0.7,0.9-1.1,1.2
			c-0.5,0.3-1,0.6-1.7,0.7l-0.2-2.4C19.5,175.1,19.8,175,20,174.9z"/>
		<path fill="#85230D" d="M20.5,181l-1.5,0.2l0,0c0.3,0.1,0.5,0.2,0.7,0.3s0.4,0.3,0.6,0.5c0.2,0.2,0.3,0.4,0.4,0.7
			c0.1,0.2,0.2,0.5,0.2,0.8c0,0.1,0,0.3,0,0.5l-2,0.2c0-0.1,0-0.2,0-0.4c0-0.1,0-0.3,0-0.4c0-0.4-0.1-0.7-0.3-1
			c-0.2-0.3-0.4-0.5-0.6-0.6c-0.3-0.1-0.5-0.2-0.9-0.3c-0.3,0-0.7,0-1,0l-3.6,0.4l-0.2-2.2l8-0.9L20.5,181z"/>
		<path fill="#85230D" d="M15.2,187.6c-0.3,0.4-0.4,0.9-0.3,1.5c0.1,0.4,0.2,0.8,0.5,1.1c0.3,0.3,0.5,0.5,0.8,0.5l0.3,1.9
			c-1-0.2-1.7-0.6-2.2-1.2c-0.5-0.6-0.8-1.3-0.9-2.2c-0.1-0.6-0.1-1.2,0.1-1.7s0.4-1,0.7-1.4s0.7-0.7,1.2-1s1-0.4,1.7-0.5
			c0.6-0.1,1.2-0.1,1.7,0.1c0.5,0.1,1,0.3,1.4,0.7c0.4,0.3,0.8,0.7,1.1,1.2c0.3,0.5,0.5,1,0.5,1.6c0.1,0.7,0,1.3-0.2,1.8
			s-0.5,1-0.9,1.4c-0.4,0.4-0.9,0.7-1.4,0.9c-0.5,0.2-1.1,0.3-1.8,0.4l-0.8-5.8C15.9,187,15.4,187.3,15.2,187.6z M19.7,189.6
			c0.3-0.3,0.3-0.7,0.3-1.3c0-0.4-0.1-0.6-0.3-0.9c-0.1-0.2-0.3-0.4-0.5-0.5s-0.4-0.2-0.6-0.2c-0.2,0-0.4,0-0.5,0l0.5,3.6
			C19,190.1,19.4,189.9,19.7,189.6z"/>
		<path fill="#85230D" d="M16.5,196.6c-0.3,0.4-0.3,0.9-0.2,1.5c0.1,0.4,0.3,0.8,0.5,1.1c0.3,0.3,0.5,0.4,0.8,0.5l0.3,1.9
			c-1-0.1-1.8-0.5-2.3-1s-0.9-1.3-1-2.2c-0.1-0.6-0.1-1.2,0-1.7c0.1-0.5,0.3-1,0.6-1.4c0.3-0.4,0.7-0.8,1.2-1c0.5-0.3,1-0.5,1.6-0.6
			c0.6-0.1,1.2-0.1,1.7,0c0.5,0.1,1,0.3,1.5,0.6c0.4,0.3,0.8,0.7,1.1,1.1c0.3,0.5,0.5,1,0.6,1.6c0.1,0.7,0.1,1.3-0.1,1.8
			c-0.2,0.5-0.4,1-0.8,1.4c-0.4,0.4-0.8,0.7-1.4,1c-0.5,0.2-1.1,0.4-1.7,0.5l-1-5.7C17.3,196,16.8,196.2,16.5,196.6z M21.1,198.3
			c0.2-0.3,0.3-0.7,0.2-1.3c-0.1-0.3-0.2-0.6-0.3-0.8c-0.2-0.2-0.3-0.4-0.5-0.5s-0.4-0.2-0.6-0.2c-0.2,0-0.4,0-0.5,0l0.6,3.5
			C20.5,198.9,20.9,198.6,21.1,198.3z"/>
		<path fill="#85230D" d="M27.2,203.7l-5.9,1.1l3.4,2.2l0.5,2.6l-3.5-2.4l-4.4,4.3l-0.5-2.6l3.1-2.8l-1-0.7l-2.7,0.5l-0.4-2.2
			l10.9-2.1L27.2,203.7z"/>
		<path fill="#85230D" d="M30.3,219.7c0.1,0.5,0.1,1,0.1,1.4c0,0.4-0.1,0.8-0.2,1.2c-0.1,0.3-0.4,0.6-0.7,0.9s-0.7,0.4-1.2,0.5
			c-0.6,0.1-1,0.1-1.4-0.1c-0.4-0.2-0.8-0.5-1.1-0.9c-0.1,0.7-0.3,1.3-0.7,1.7c-0.4,0.4-1,0.7-1.7,0.8c-0.6,0.1-1,0.1-1.5,0
			c-0.4-0.1-0.8-0.4-1.2-0.7c-0.3-0.3-0.6-0.7-0.8-1.1c-0.2-0.4-0.4-0.9-0.5-1.4l-1-5.3l10.9-2.1L30.3,219.7z M21.2,221.3
			c0,0.2,0.1,0.5,0.2,0.7s0.2,0.4,0.3,0.5c0.1,0.1,0.3,0.2,0.5,0.3c0.2,0.1,0.4,0.1,0.7,0c0.6-0.1,0.9-0.3,1.1-0.7
			c0.2-0.4,0.2-0.8,0.1-1.3l-0.5-2.6l-3,0.6L21.2,221.3z M25.8,220.2c0.1,0.4,0.3,0.8,0.5,1c0.3,0.2,0.6,0.3,1.1,0.2
			c0.3,0,0.5-0.1,0.6-0.3c0.1-0.1,0.2-0.3,0.3-0.4c0.1-0.2,0.1-0.4,0.1-0.6s0-0.4-0.1-0.6l-0.4-2.2l-2.6,0.5L25.8,220.2z"/>
		<path fill="#85230D" d="M31.8,227.2l-10.9,2.2l-0.4-2.2l10.9-2.2L31.8,227.2z"/>
		<path fill="#85230D" d="M21.6,233.1l7.4-4.3l0.5,2.3l-5.1,2.7l0,0l5.7,0.6l0.4,2.2l-8.4-1.1L21.6,233.1z"/>
		<path fill="#85230D" d="M24.9,244.5c-0.5-0.2-0.9-0.4-1.1-0.8c-0.3-0.4-0.5-0.8-0.6-1.3c-0.1-0.6-0.1-1.1,0-1.6
			c0.1-0.5,0.4-0.9,0.7-1.3s0.7-0.7,1.2-0.9c0.5-0.3,1-0.4,1.5-0.5c0.5-0.1,1.1-0.1,1.6-0.1c0.5,0,1,0.2,1.4,0.4
			c0.4,0.2,0.8,0.5,1.1,0.9s0.5,0.9,0.7,1.5c0.1,0.5,0.1,0.9,0,1.4c-0.1,0.5-0.3,0.9-0.7,1.2l0,0l4-0.8l0.4,2.2l-10.9,2.2l-0.4-2.1
			L24.9,244.5L24.9,244.5z M28.8,243.6c0.3-0.1,0.5-0.3,0.7-0.5c0.2-0.2,0.3-0.4,0.4-0.7c0.1-0.3,0.1-0.6,0-0.9
			c-0.1-0.4-0.2-0.6-0.4-0.9s-0.4-0.4-0.7-0.5s-0.6-0.2-0.9-0.2c-0.3,0-0.6,0-1,0.1c-0.3,0.1-0.6,0.2-0.9,0.3
			c-0.3,0.1-0.5,0.3-0.7,0.5c-0.2,0.2-0.4,0.4-0.5,0.7c-0.1,0.3-0.1,0.6,0,0.9c0.1,0.4,0.2,0.6,0.4,0.9s0.4,0.4,0.7,0.5
			c0.3,0.1,0.6,0.1,0.9,0.1c0.3,0,0.6,0,1-0.1C28.2,243.8,28.5,243.7,28.8,243.6z"/>
	</g>
	<g>
		<path fill="#85230D" d="M261.6,113.8l11.8,1.6l-1.2,2.2l-2.6-0.4l-2,3.7l1.8,1.9l-1.2,2.2l-7.8-9L261.6,113.8z M267.7,116.9
			l-4.3-0.7l0,0l2.9,3.2L267.7,116.9z"/>
		<path fill="#85230D" d="M275.6,109.3c0.3,0.4,0.4,0.9,0.3,1.3c0,0.5-0.2,0.9-0.4,1.4c-0.3,0.5-0.6,0.9-1.1,1.2
			c-0.4,0.3-0.9,0.5-1.4,0.5c-0.5,0.1-1,0-1.5-0.1c-0.5-0.1-1-0.3-1.5-0.6c-0.5-0.3-0.9-0.6-1.3-0.9c-0.4-0.4-0.7-0.8-0.9-1.2
			c-0.2-0.4-0.3-0.9-0.3-1.4c0-0.5,0.2-1,0.4-1.5c0.2-0.4,0.5-0.8,0.9-1.1c0.4-0.3,0.8-0.4,1.3-0.5l0,0l-3.6-1.9l1.1-1.9l9.8,5.3
			l-1,1.8L275.6,109.3L275.6,109.3z M272,107.5c-0.3-0.1-0.6-0.1-0.9-0.1c-0.3,0-0.5,0.1-0.8,0.2c-0.2,0.1-0.4,0.4-0.6,0.7
			c-0.2,0.3-0.3,0.6-0.2,0.9c0,0.3,0.1,0.6,0.2,0.8c0.1,0.2,0.3,0.5,0.6,0.7c0.2,0.2,0.5,0.4,0.8,0.5c0.3,0.1,0.6,0.3,0.9,0.4
			c0.3,0.1,0.6,0.1,0.9,0.1s0.6-0.1,0.8-0.3c0.2-0.1,0.5-0.4,0.6-0.7c0.2-0.3,0.3-0.6,0.2-0.9c0-0.3-0.1-0.5-0.2-0.8
			c-0.1-0.2-0.3-0.5-0.6-0.7c-0.2-0.2-0.5-0.4-0.8-0.5C272.6,107.7,272.3,107.6,272,107.5z"/>
		<path fill="#85230D" d="M272.4,102.9c-0.2-0.4-0.3-0.8-0.3-1.2c0-0.4,0-0.8,0.2-1.3c0.1-0.4,0.3-0.8,0.5-1.2
			c0.2-0.4,0.4-0.7,0.7-1c0.2-0.3,0.5-0.6,0.8-0.8s0.6-0.4,1-0.4c0.4-0.1,0.8,0,1.2,0.3l3.7,2c0.3,0.2,0.6,0.3,0.9,0.4
			c0.3,0.1,0.6,0.2,0.8,0.2l-1.1,2c-0.1,0-0.3-0.1-0.4-0.1c-0.1,0-0.3-0.1-0.4-0.1c0.2,0.5,0.2,1,0.1,1.5c-0.1,0.5-0.3,1-0.5,1.4
			c-0.2,0.3-0.4,0.6-0.6,0.9c-0.2,0.2-0.5,0.4-0.8,0.6c-0.3,0.1-0.6,0.2-0.9,0.2c-0.3,0-0.7-0.1-1-0.3c-0.4-0.2-0.7-0.5-0.9-0.8
			c-0.2-0.3-0.3-0.6-0.3-0.9c0-0.3,0-0.6,0.1-1c0.1-0.3,0.2-0.7,0.3-1c0.1-0.3,0.2-0.6,0.4-0.9c0.1-0.3,0.2-0.6,0.3-0.8
			c0.1-0.2,0.1-0.5,0-0.7c0-0.2-0.2-0.3-0.4-0.4c-0.2-0.1-0.4-0.2-0.6-0.2c-0.2,0-0.3,0-0.4,0.1c-0.1,0.1-0.2,0.2-0.4,0.3
			c-0.1,0.1-0.2,0.3-0.3,0.5c-0.2,0.4-0.3,0.7-0.2,1c0,0.3,0.2,0.6,0.6,0.8l-1.1,1.9C272.9,103.6,272.6,103.3,272.4,102.9z
			 M277.2,100.5c0,0.1-0.1,0.3-0.1,0.5c0,0.2-0.1,0.3-0.2,0.5c-0.1,0.2-0.1,0.3-0.2,0.5c-0.1,0.2-0.1,0.3-0.1,0.5c0,0.2,0,0.3,0,0.5
			s0.1,0.3,0.2,0.4c0.1,0.1,0.2,0.2,0.4,0.3c0.2,0.1,0.3,0.1,0.5,0.1c0.2,0,0.3,0,0.4-0.1s0.2-0.2,0.4-0.3c0.1-0.1,0.2-0.3,0.3-0.4
			c0.2-0.4,0.3-0.7,0.3-1c0-0.3-0.1-0.5-0.2-0.7c-0.1-0.2-0.3-0.4-0.4-0.5c-0.2-0.1-0.3-0.2-0.4-0.3l-0.7-0.4
			C277.2,100.3,277.2,100.4,277.2,100.5z"/>
		<path fill="#85230D" d="M276.5,92.8l1,0.5l0,0c-0.2-0.5-0.3-0.9-0.3-1.4c0-0.5,0.1-0.9,0.4-1.4c0.2-0.4,0.6-0.8,0.9-1.1
			c0.4-0.3,0.8-0.4,1.4-0.3c-0.2-0.4-0.3-0.8-0.4-1.3c0-0.5,0.1-1,0.3-1.5c0.2-0.4,0.4-0.7,0.7-1c0.3-0.3,0.6-0.5,0.9-0.6
			c0.3-0.1,0.7-0.2,1.1-0.1c0.4,0,0.8,0.2,1.3,0.4l4.7,2.6l-1.1,1.9l-4-2.2c-0.2-0.1-0.5-0.2-0.7-0.3S282.2,87,282,87
			c-0.2,0-0.4,0.1-0.6,0.2c-0.2,0.1-0.3,0.3-0.5,0.6c-0.1,0.3-0.2,0.5-0.2,0.8c0,0.2,0.1,0.4,0.2,0.6c0.1,0.2,0.3,0.4,0.5,0.5
			c0.2,0.1,0.4,0.3,0.6,0.4l3.9,2.1l-1.1,1.9l-4-2.2c-0.2-0.1-0.4-0.2-0.6-0.3c-0.2-0.1-0.4-0.2-0.6-0.2c-0.2,0-0.4,0-0.6,0.1
			c-0.2,0.1-0.4,0.3-0.5,0.6c0,0.1-0.1,0.2-0.1,0.4c0,0.2,0,0.4,0,0.6c0,0.2,0.1,0.4,0.3,0.6c0.2,0.2,0.4,0.4,0.8,0.6l4.1,2.2
			l-1.1,1.9l-7.1-3.8L276.5,92.8z"/>
		<path fill="#85230D" d="M288.4,83.6c0.2,0,0.4-0.1,0.6-0.1c0.2-0.1,0.3-0.2,0.5-0.4c0.1-0.2,0.3-0.3,0.4-0.5
			c0.1-0.1,0.1-0.3,0.2-0.5s0.1-0.3,0.1-0.5c0-0.2,0-0.3-0.1-0.5c-0.1-0.1-0.2-0.3-0.4-0.4c-0.3-0.2-0.6-0.1-1,0.2
			c-0.4,0.3-0.8,0.8-1.3,1.4c-0.2,0.2-0.4,0.5-0.7,0.7c-0.2,0.2-0.5,0.4-0.7,0.5c-0.3,0.1-0.5,0.2-0.8,0.2c-0.3,0-0.6-0.1-0.9-0.2
			c-0.5-0.2-0.8-0.5-1-0.9c-0.2-0.3-0.3-0.7-0.3-1.1c0-0.4,0-0.8,0.2-1.2c0.1-0.4,0.3-0.8,0.5-1.2c0.2-0.4,0.4-0.7,0.7-1.1
			c0.3-0.3,0.6-0.6,0.9-0.8c0.3-0.2,0.7-0.3,1.1-0.3c0.4,0,0.8,0.1,1.3,0.3l-1,1.8c-0.4-0.2-0.7-0.2-1,0c-0.3,0.2-0.5,0.4-0.7,0.8
			c-0.1,0.1-0.1,0.2-0.2,0.4c-0.1,0.1-0.1,0.3-0.1,0.4c0,0.1,0,0.3,0.1,0.4c0,0.1,0.1,0.2,0.3,0.3c0.2,0.1,0.4,0.1,0.5,0
			c0.2-0.1,0.4-0.2,0.5-0.4c0.2-0.2,0.4-0.4,0.6-0.6c0.2-0.2,0.4-0.5,0.6-0.7c0.2-0.2,0.4-0.5,0.7-0.7s0.5-0.4,0.8-0.5
			c0.3-0.1,0.5-0.2,0.8-0.2c0.3,0,0.6,0.1,0.9,0.3c0.5,0.3,0.8,0.6,1,0.9c0.2,0.4,0.3,0.7,0.4,1.1c0,0.4,0,0.8-0.2,1.3
			c-0.1,0.4-0.3,0.8-0.5,1.2c-0.2,0.4-0.5,0.8-0.8,1.1c-0.3,0.3-0.6,0.6-1,0.8c-0.4,0.2-0.7,0.3-1.2,0.3c-0.4,0-0.9-0.1-1.4-0.3
			l1-1.8C288,83.5,288.2,83.6,288.4,83.6z"/>
		<path fill="#85230D" d="M288.3,64.6l11.8,1.6l-1.2,2.2l-2.6-0.4l-2,3.7l1.8,1.9l-1.2,2.2l-7.8-9L288.3,64.6z M294.4,67.7l-4.3-0.7
			l0,0l2.9,3.2L294.4,67.7z"/>
		<path fill="#85230D" d="M301.2,64.1l-8.4-1.4l1.1-2l5.6,1.1l0,0l-4-4.1l1-1.9l5.8,6.2L301.2,64.1z"/>
		<path fill="#85230D" d="M303.6,55.7c0.4-0.1,0.8-0.5,1.1-1c0.2-0.4,0.3-0.8,0.3-1.2c0-0.4-0.2-0.7-0.3-0.9l0.9-1.7
			c0.7,0.7,1.1,1.5,1.1,2.2c0.1,0.8-0.1,1.5-0.6,2.4c-0.3,0.6-0.7,1-1.1,1.4s-0.9,0.6-1.4,0.7c-0.5,0.1-1,0.2-1.6,0.1
			c-0.5-0.1-1.1-0.3-1.6-0.6c-0.5-0.3-1-0.6-1.3-1.1c-0.4-0.4-0.6-0.9-0.8-1.4c-0.2-0.5-0.2-1-0.2-1.6c0-0.5,0.2-1.1,0.5-1.6
			c0.3-0.6,0.7-1.1,1.2-1.4c0.5-0.3,1-0.5,1.5-0.6c0.5-0.1,1.1,0,1.7,0.1c0.6,0.1,1.1,0.4,1.6,0.7l-2.8,5.1
			C302.6,55.8,303.1,55.9,303.6,55.7z M301,51.5c-0.4,0.1-0.7,0.4-1,0.9c-0.2,0.3-0.3,0.6-0.3,0.9c0,0.3,0,0.5,0.1,0.7
			c0.1,0.2,0.2,0.4,0.4,0.5c0.1,0.1,0.3,0.3,0.4,0.3l1.7-3.2C301.9,51.5,301.4,51.4,301,51.5z"/>
	</g>
	<g>
		<path fill="#85230D" d="M305.5,147.5c-0.3,0-0.5,0.1-0.8,0.2c-0.3,0.1-0.5,0.3-0.7,0.4c-0.2,0.2-0.4,0.4-0.5,0.7
			c-0.3,0.5-0.4,0.9-0.4,1.4c0,0.4,0.1,0.9,0.3,1.2c0.2,0.4,0.5,0.7,0.8,1c0.3,0.3,0.7,0.6,1.2,0.8c0.4,0.2,0.8,0.4,1.3,0.5
			c0.4,0.1,0.9,0.2,1.3,0.1c0.4,0,0.8-0.2,1.2-0.4c0.4-0.2,0.7-0.6,1-1.1c0.4-0.7,0.4-1.3,0.2-1.9s-0.6-1.1-1.2-1.5l1.1-2.1
			c0.6,0.4,1.1,0.8,1.4,1.3c0.4,0.5,0.6,1,0.8,1.6s0.2,1.1,0.1,1.7c-0.1,0.6-0.3,1.2-0.6,1.8c-0.4,0.7-0.9,1.3-1.5,1.8
			c-0.6,0.5-1.2,0.8-1.9,0.9c-0.7,0.2-1.4,0.2-2.1,0.1c-0.7-0.1-1.5-0.4-2.2-0.8c-0.7-0.4-1.3-0.9-1.8-1.4c-0.5-0.6-0.9-1.2-1.1-1.8
			c-0.2-0.7-0.3-1.4-0.3-2.1c0.1-0.7,0.3-1.5,0.7-2.2c0.3-0.5,0.7-1,1.1-1.4c0.4-0.4,0.9-0.7,1.4-0.9c0.5-0.2,1-0.3,1.6-0.3
			c0.6,0,1.2,0.1,1.8,0.4l-1.1,2.1C306.1,147.5,305.8,147.5,305.5,147.5z"/>
		<path fill="#85230D" d="M306.1,140.4l9.7,5.4l-1.1,1.9l-9.7-5.4L306.1,140.4z"/>
		<path fill="#85230D" d="M310.8,140.7c-0.2-0.4-0.3-0.8-0.3-1.2c0-0.4,0.1-0.8,0.2-1.3c0.1-0.4,0.3-0.8,0.5-1.2
			c0.2-0.4,0.4-0.7,0.7-1c0.3-0.3,0.5-0.6,0.8-0.8c0.3-0.2,0.6-0.4,1-0.4s0.8,0,1.2,0.3l3.7,2c0.3,0.2,0.6,0.3,0.9,0.4
			c0.3,0.1,0.6,0.2,0.8,0.2l-1.1,2c-0.1,0-0.3-0.1-0.4-0.1c-0.1,0-0.3-0.1-0.4-0.1c0.1,0.5,0.2,1,0.1,1.5c-0.1,0.5-0.3,1-0.5,1.4
			c-0.2,0.3-0.4,0.6-0.6,0.9c-0.2,0.2-0.5,0.4-0.8,0.6s-0.6,0.2-0.9,0.2s-0.7-0.1-1-0.3c-0.4-0.2-0.7-0.5-0.9-0.8s-0.3-0.6-0.3-0.9
			c0-0.3,0-0.6,0.1-1c0.1-0.3,0.2-0.7,0.3-1c0.1-0.3,0.2-0.6,0.4-0.9s0.2-0.6,0.3-0.8c0.1-0.2,0.1-0.5,0-0.6c0-0.2-0.2-0.3-0.4-0.4
			c-0.2-0.1-0.4-0.2-0.6-0.2c-0.2,0-0.3,0-0.4,0.1c-0.1,0.1-0.2,0.2-0.4,0.3s-0.2,0.3-0.3,0.5c-0.2,0.4-0.3,0.7-0.2,1
			s0.2,0.6,0.6,0.8l-1.1,1.9C311.3,141.4,311,141.1,310.8,140.7z M315.6,138.4c0,0.1-0.1,0.3-0.1,0.5c0,0.2-0.1,0.3-0.2,0.5
			c-0.1,0.2-0.1,0.3-0.2,0.5c-0.1,0.2-0.1,0.3-0.1,0.5c0,0.2,0,0.3,0,0.5c0,0.1,0.1,0.3,0.2,0.4c0.1,0.1,0.2,0.2,0.4,0.3
			c0.2,0.1,0.3,0.1,0.5,0.1c0.2,0,0.3,0,0.4-0.1c0.1-0.1,0.2-0.2,0.4-0.3c0.1-0.1,0.2-0.3,0.3-0.4c0.2-0.4,0.3-0.7,0.3-1
			c0-0.3-0.1-0.5-0.2-0.7c-0.1-0.2-0.3-0.4-0.4-0.5s-0.3-0.2-0.4-0.3l-0.7-0.4C315.6,138.1,315.6,138.2,315.6,138.4z"/>
		<path fill="#85230D" d="M324.5,135c0,0.5-0.1,1.1-0.5,1.8c-0.1,0.2-0.2,0.4-0.3,0.6c-0.1,0.2-0.2,0.4-0.4,0.6l-1.6-0.9
			c0.1-0.2,0.2-0.3,0.4-0.5c0.1-0.2,0.2-0.4,0.3-0.6c0.1-0.3,0.1-0.5,0-0.7s-0.3-0.4-0.5-0.5c-0.2-0.1-0.3-0.1-0.5-0.2l-8-1.2
			l1.1-2.1l5.7,1.1l0,0l-4-4.2l1.1-2l6.3,7.3C324.2,134,324.5,134.5,324.5,135z"/>
		<path fill="#85230D" d="M320,115.1l11.8,1.7l-1.2,2.2l-2.6-0.5l-2,3.6l1.7,2l-1.2,2.2l-7.7-9.1L320,115.1z M326,118.3l-4.3-0.7
			l0,0l2.9,3.2L326,118.3z"/>
		<path fill="#85230D" d="M332.9,114.7l-8.4-1.5l1.1-2l5.6,1.2l0,0l-4-4.1l1.1-1.9l5.7,6.3L332.9,114.7z"/>
		<path fill="#85230D" d="M335.3,106.4c0.4-0.1,0.8-0.5,1.1-1c0.2-0.4,0.3-0.8,0.3-1.2c0-0.4-0.2-0.7-0.3-0.9l0.9-1.7
			c0.7,0.7,1.1,1.5,1.1,2.3c0.1,0.8-0.1,1.5-0.6,2.3c-0.3,0.6-0.7,1-1.1,1.4c-0.4,0.3-0.9,0.6-1.4,0.7c-0.5,0.1-1,0.2-1.6,0.1
			c-0.5-0.1-1.1-0.3-1.6-0.6c-0.5-0.3-1-0.6-1.3-1.1c-0.4-0.4-0.6-0.9-0.8-1.4c-0.2-0.5-0.2-1-0.2-1.6c0.1-0.5,0.2-1.1,0.5-1.6
			c0.3-0.6,0.7-1.1,1.2-1.4c0.5-0.3,1-0.5,1.5-0.6s1.1,0,1.7,0.1c0.6,0.1,1.1,0.4,1.6,0.7l-2.8,5.1
			C334.3,106.4,334.9,106.5,335.3,106.4z M332.8,102.1c-0.4,0.1-0.7,0.4-1,0.8c-0.2,0.3-0.3,0.6-0.3,0.9c0,0.3,0,0.5,0.1,0.7
			c0.1,0.2,0.2,0.4,0.3,0.5c0.1,0.1,0.3,0.3,0.4,0.3l1.7-3.2C333.7,102.1,333.2,102,332.8,102.1z"/>
	</g>
	<g>
		<path fill="#85230D" d="M344,200.4c0.3,0.3,0.6,0.6,0.8,1s0.3,0.9,0.3,1.4c0,0.6-0.2,1.2-0.6,1.9c-0.2,0.4-0.5,0.8-0.8,1.1
			c-0.3,0.3-0.7,0.6-1.1,0.7c-0.4,0.2-0.8,0.2-1.3,0.2c-0.5,0-1-0.2-1.5-0.5l-0.8-0.5l1.1-1.9l0.4,0.2c0.2,0.1,0.5,0.2,0.7,0.3
			c0.2,0.1,0.4,0.1,0.6,0.1c0.2,0,0.4-0.1,0.5-0.2c0.2-0.1,0.3-0.3,0.5-0.6c0.2-0.3,0.2-0.5,0.2-0.7c0-0.2-0.1-0.4-0.2-0.5
			c-0.1-0.2-0.3-0.3-0.5-0.4c-0.2-0.1-0.4-0.2-0.5-0.3l-6.6-3.6l1.2-2.1l6.7,3.7C343.4,199.9,343.7,200.1,344,200.4z"/>
		<path fill="#85230D" d="M346.5,196.7c0.4-0.1,0.8-0.5,1.1-1c0.2-0.4,0.3-0.8,0.3-1.2s-0.2-0.7-0.3-0.9l0.9-1.7
			c0.7,0.7,1.1,1.5,1.1,2.3c0.1,0.8-0.1,1.5-0.6,2.3c-0.3,0.6-0.7,1-1.1,1.4c-0.4,0.3-0.9,0.6-1.4,0.7c-0.5,0.1-1,0.2-1.6,0.1
			c-0.5-0.1-1.1-0.3-1.6-0.6c-0.5-0.3-1-0.6-1.3-1.1c-0.4-0.4-0.6-0.9-0.8-1.4c-0.2-0.5-0.2-1-0.2-1.6s0.2-1.1,0.5-1.6
			c0.3-0.6,0.7-1.1,1.2-1.4c0.5-0.3,1-0.5,1.5-0.6c0.5-0.1,1.1,0,1.7,0.1c0.6,0.1,1.1,0.4,1.6,0.7l-2.8,5.1
			C345.5,196.8,346,196.8,346.5,196.7z M344,192.5c-0.4,0.1-0.7,0.4-1,0.8c-0.2,0.3-0.3,0.6-0.3,0.9c0,0.3,0,0.5,0.1,0.7
			c0.1,0.2,0.2,0.4,0.3,0.5c0.1,0.1,0.3,0.3,0.4,0.3l1.7-3.2C344.8,192.4,344.4,192.4,344,192.5z"/>
		<path fill="#85230D" d="M345.2,189.5l-1.3-0.7l0.6-1.2l-0.5-0.3c-0.6-0.3-1-0.8-1.2-1.4c-0.2-0.6-0.1-1.3,0.4-2.1
			c0.1-0.2,0.2-0.3,0.3-0.5c0.1-0.2,0.2-0.3,0.3-0.5l1.4,0.8c-0.2,0.2-0.3,0.4-0.4,0.7c-0.1,0.3-0.2,0.5-0.1,0.7
			c0.1,0.2,0.2,0.4,0.5,0.5l0.4,0.2l0.7-1.3l1.3,0.7l-0.7,1.3l5.8,3.2l-1.1,1.9l-5.8-3.2L345.2,189.5z"/>
		<path fill="#85230D" d="M347.5,185.1l-1.3-0.7l0.6-1.2l-0.5-0.3c-0.6-0.3-1-0.8-1.2-1.4c-0.2-0.6-0.1-1.3,0.4-2.1
			c0.1-0.2,0.2-0.3,0.3-0.5c0.1-0.2,0.2-0.3,0.3-0.5l1.4,0.8c-0.2,0.2-0.3,0.4-0.4,0.7c-0.1,0.3-0.2,0.5-0.1,0.7
			c0.1,0.2,0.2,0.4,0.5,0.5l0.4,0.2l0.7-1.3l1.3,0.7l-0.7,1.3l5.8,3.2l-1.1,1.9l-5.8-3.2L347.5,185.1z"/>
		<path fill="#85230D" d="M351,169.5c0.3-0.6,0.8-1.2,1.3-1.6c0.5-0.4,1.1-0.7,1.7-0.9c0.6-0.2,1.3-0.2,2-0.1
			c0.7,0.1,1.5,0.4,2.3,0.8c0.7,0.4,1.3,0.8,1.8,1.4c0.5,0.5,0.9,1.1,1.1,1.7c0.2,0.6,0.3,1.3,0.3,1.9c-0.1,0.7-0.3,1.4-0.7,2.2
			l-2.3,4.2l-9.8-5.4L351,169.5z M358.8,174c0.2-0.3,0.3-0.6,0.3-1c0.1-0.3,0-0.7-0.1-1.1c-0.1-0.4-0.3-0.7-0.6-1
			c-0.3-0.3-0.7-0.7-1.3-1c-0.5-0.3-1-0.5-1.4-0.6c-0.4-0.1-0.9-0.2-1.3-0.1c-0.4,0.1-0.8,0.2-1.1,0.5c-0.3,0.3-0.7,0.7-1,1.2
			l-0.8,1.5l6.1,3.4L358.8,174z"/>
		<path fill="#85230D" d="M358,165.5c-0.2-0.4-0.3-0.8-0.3-1.2c0-0.4,0-0.8,0.2-1.3c0.1-0.4,0.3-0.8,0.5-1.2c0.2-0.4,0.4-0.7,0.7-1
			c0.2-0.3,0.5-0.6,0.8-0.8c0.3-0.2,0.6-0.4,1-0.4c0.4,0,0.8,0,1.2,0.3l3.7,2c0.3,0.2,0.6,0.3,0.9,0.4s0.6,0.2,0.8,0.2l-1.1,2
			c-0.1,0-0.3-0.1-0.4-0.1c-0.1,0-0.3-0.1-0.4-0.1c0.1,0.5,0.2,1,0.1,1.5c-0.1,0.5-0.3,1-0.5,1.4c-0.2,0.3-0.4,0.6-0.6,0.9
			c-0.2,0.2-0.5,0.4-0.8,0.6c-0.3,0.1-0.6,0.2-0.9,0.2s-0.7-0.1-1-0.3c-0.4-0.2-0.7-0.5-0.9-0.8c-0.2-0.3-0.3-0.6-0.3-0.9
			c0-0.3,0-0.6,0.1-1c0.1-0.3,0.2-0.7,0.3-1s0.2-0.6,0.4-0.9c0.1-0.3,0.2-0.6,0.3-0.8c0.1-0.2,0.1-0.5,0-0.6c0-0.2-0.2-0.3-0.4-0.4
			c-0.2-0.1-0.4-0.2-0.6-0.2c-0.2,0-0.3,0-0.4,0.1c-0.1,0.1-0.2,0.2-0.4,0.3c-0.1,0.1-0.2,0.3-0.3,0.5c-0.2,0.4-0.3,0.7-0.2,1
			s0.2,0.6,0.6,0.8l-1.1,1.9C358.5,166.2,358.2,165.9,358,165.5z M362.8,163.2c0,0.1-0.1,0.3-0.1,0.5c0,0.2-0.1,0.3-0.2,0.5
			c-0.1,0.2-0.1,0.3-0.2,0.5c-0.1,0.2-0.1,0.3-0.1,0.5c0,0.2,0,0.3,0,0.5c0,0.1,0.1,0.3,0.2,0.4c0.1,0.1,0.2,0.2,0.4,0.3
			c0.2,0.1,0.3,0.1,0.5,0.1c0.2,0,0.3,0,0.4-0.1c0.1-0.1,0.2-0.2,0.4-0.3c0.1-0.1,0.2-0.3,0.3-0.4c0.2-0.4,0.3-0.7,0.3-1
			c0-0.3-0.1-0.5-0.2-0.7c-0.1-0.2-0.3-0.4-0.4-0.5c-0.2-0.1-0.3-0.2-0.4-0.3l-0.7-0.4C362.8,162.9,362.8,163.1,362.8,163.2z"/>
		<path fill="#85230D" d="M369.1,159.5l-8.4-1.5l1.1-2l5.6,1.2l0,0l-4-4.1l1.1-1.9l5.7,6.3L369.1,159.5z"/>
		<path fill="#85230D" d="M363.9,149.6l-1.6-0.9l1.1-1.9l1.6,0.9L363.9,149.6z M366.1,148.3l7.1,3.9l-1.1,1.9l-7.1-3.9L366.1,148.3z
			"/>
		<path fill="#85230D" d="M373.1,148.1c0.2,0,0.4,0,0.6-0.1s0.3-0.2,0.5-0.4c0.1-0.2,0.3-0.3,0.4-0.5c0.1-0.1,0.1-0.3,0.2-0.5
			c0.1-0.2,0.1-0.3,0.1-0.5s0-0.3-0.1-0.5c-0.1-0.1-0.2-0.3-0.4-0.4c-0.3-0.2-0.6-0.1-1,0.2c-0.4,0.3-0.8,0.8-1.3,1.4
			c-0.2,0.2-0.4,0.5-0.7,0.7c-0.2,0.2-0.5,0.4-0.7,0.5c-0.3,0.1-0.5,0.2-0.8,0.2c-0.3,0-0.6-0.1-0.9-0.2c-0.5-0.2-0.8-0.5-1-0.9
			c-0.2-0.3-0.3-0.7-0.3-1.1c0-0.4,0.1-0.8,0.2-1.2s0.3-0.8,0.5-1.2c0.2-0.4,0.5-0.7,0.7-1.1c0.3-0.3,0.6-0.6,0.9-0.8
			s0.7-0.3,1.1-0.3c0.4,0,0.8,0.1,1.3,0.3l-1,1.8c-0.4-0.2-0.7-0.2-1,0c-0.3,0.2-0.5,0.4-0.7,0.8c-0.1,0.1-0.1,0.2-0.2,0.4
			c-0.1,0.1-0.1,0.3-0.1,0.4c0,0.1,0,0.3,0.1,0.4c0,0.1,0.1,0.2,0.3,0.3c0.2,0.1,0.3,0.1,0.5,0s0.4-0.2,0.5-0.4
			c0.2-0.2,0.4-0.4,0.6-0.6c0.2-0.2,0.4-0.5,0.6-0.7c0.2-0.2,0.4-0.5,0.7-0.7s0.5-0.4,0.8-0.5c0.3-0.1,0.5-0.2,0.8-0.2
			c0.3,0,0.6,0.1,0.9,0.3c0.5,0.3,0.8,0.6,1,0.9s0.3,0.7,0.4,1.1c0,0.4,0,0.8-0.2,1.3c-0.1,0.4-0.3,0.8-0.5,1.2
			c-0.2,0.4-0.5,0.8-0.8,1.1c-0.3,0.3-0.6,0.6-1,0.8c-0.4,0.2-0.7,0.3-1.2,0.3s-0.9-0.1-1.4-0.3l1-1.8
			C372.7,148,372.9,148.1,373.1,148.1z"/>
		<path fill="#85230D" d="M373.1,129.1l11.8,1.7l-1.2,2.2l-2.6-0.5l-2,3.6l1.8,2l-1.2,2.2l-7.7-9L373.1,129.1z M379.2,132.3
			l-4.3-0.7l0,0l2.9,3.2L379.2,132.3z"/>
		<path fill="#85230D" d="M386.1,128.7l-8.4-1.5l1.1-2l5.6,1.2l0,0l-4-4.1l1.1-1.9l5.7,6.3L386.1,128.7z"/>
		<path fill="#85230D" d="M388.5,120.3c0.4-0.1,0.8-0.5,1.1-1c0.2-0.4,0.3-0.8,0.3-1.2c0-0.4-0.2-0.7-0.3-0.9l0.9-1.7
			c0.7,0.7,1.1,1.5,1.1,2.3c0.1,0.8-0.1,1.5-0.6,2.3c-0.3,0.6-0.7,1-1.1,1.4c-0.4,0.3-0.9,0.6-1.4,0.7c-0.5,0.1-1,0.2-1.6,0.1
			c-0.5-0.1-1.1-0.3-1.6-0.6c-0.5-0.3-1-0.6-1.3-1.1c-0.4-0.4-0.6-0.9-0.8-1.4c-0.2-0.5-0.2-1-0.2-1.6c0.1-0.5,0.2-1.1,0.5-1.6
			c0.3-0.6,0.7-1.1,1.2-1.4c0.5-0.3,1-0.5,1.5-0.6c0.5-0.1,1.1,0,1.7,0.1c0.6,0.1,1.1,0.4,1.6,0.7l-2.8,5.1
			C387.5,120.4,388,120.4,388.5,120.3z M386,116.1c-0.4,0.1-0.7,0.4-1,0.8c-0.2,0.3-0.3,0.6-0.3,0.9c0,0.3,0,0.5,0.1,0.7
			s0.2,0.4,0.3,0.5c0.1,0.1,0.3,0.3,0.4,0.3l1.7-3.2C386.8,116,386.3,116,386,116.1z"/>
	</g>
	<g>
		<path fill="#85230D" d="M385.3,232.4c0.3,0.3,0.6,0.6,0.8,1c0.2,0.4,0.3,0.9,0.3,1.4c0,0.5-0.2,1.2-0.6,1.9
			c-0.2,0.4-0.5,0.8-0.8,1.1c-0.3,0.3-0.7,0.6-1.1,0.7c-0.4,0.2-0.9,0.2-1.3,0.2c-0.5,0-1-0.2-1.5-0.5l-0.8-0.5l1.1-1.9l0.4,0.2
			c0.2,0.1,0.5,0.2,0.7,0.3c0.2,0.1,0.4,0.1,0.6,0.1c0.2,0,0.4-0.1,0.5-0.2s0.3-0.3,0.5-0.6c0.2-0.3,0.2-0.5,0.2-0.7
			c0-0.2-0.1-0.4-0.2-0.5c-0.1-0.2-0.3-0.3-0.5-0.4c-0.2-0.1-0.4-0.2-0.5-0.3l-6.6-3.6l1.2-2.1l6.7,3.7
			C384.6,231.9,385,232.2,385.3,232.4z"/>
		<path fill="#85230D" d="M380.2,227.2l-1.6-0.9l1.1-1.9l1.6,0.9L380.2,227.2z M382.4,225.9l7,3.9l-1.1,1.9l-7-3.9L382.4,225.9z"/>
		<path fill="#85230D" d="M384.3,222.5l1,0.5l0,0c-0.2-0.5-0.3-0.9-0.3-1.4c0-0.5,0.1-0.9,0.4-1.4c0.2-0.4,0.6-0.8,0.9-1.1
			c0.4-0.3,0.8-0.4,1.4-0.3c-0.2-0.4-0.3-0.8-0.3-1.3c0-0.5,0.1-1,0.4-1.5c0.2-0.4,0.4-0.7,0.7-1c0.3-0.3,0.6-0.5,0.9-0.6
			c0.3-0.1,0.7-0.1,1.1-0.1c0.4,0.1,0.8,0.2,1.3,0.5l4.7,2.6l-1.1,1.9l-4-2.2c-0.2-0.1-0.5-0.2-0.7-0.3c-0.2-0.1-0.4-0.1-0.6-0.2
			c-0.2,0-0.4,0-0.6,0.2c-0.2,0.1-0.3,0.3-0.5,0.6s-0.2,0.5-0.2,0.7c0,0.2,0.1,0.4,0.2,0.6s0.3,0.4,0.5,0.5c0.2,0.2,0.4,0.3,0.6,0.4
			l3.9,2.2l-1.1,1.9l-4-2.2c-0.2-0.1-0.4-0.2-0.6-0.3c-0.2-0.1-0.4-0.2-0.6-0.2c-0.2,0-0.4,0-0.6,0.1c-0.2,0.1-0.4,0.3-0.5,0.6
			c-0.1,0.1-0.1,0.2-0.1,0.4c0,0.2,0,0.4,0,0.6c0,0.2,0.1,0.4,0.3,0.6c0.2,0.2,0.4,0.4,0.8,0.6l4.1,2.3l-1.1,1.9l-7-3.9L384.3,222.5
			z"/>
		<path fill="#85230D" d="M390.8,204.4l3.7,2.1l2.2-3.9l-3.7-2.1l1.2-2.1l9.7,5.4l-1.2,2.1l-4.2-2.3l-2.2,3.9l4.2,2.3l-1.2,2.1
			l-9.7-5.4L390.8,204.4z"/>
		<path fill="#85230D" d="M399.8,199.2c-0.4-0.4-0.6-0.9-0.8-1.4c-0.1-0.5-0.2-1-0.1-1.6c0.1-0.5,0.3-1.1,0.6-1.6
			c0.3-0.6,0.7-1,1.1-1.4c0.4-0.4,0.9-0.6,1.4-0.7c0.5-0.1,1-0.2,1.6-0.1c0.6,0.1,1.1,0.3,1.7,0.6s1,0.7,1.4,1.1
			c0.4,0.4,0.6,0.9,0.8,1.4c0.1,0.5,0.2,1,0.1,1.6c-0.1,0.5-0.3,1.1-0.6,1.6c-0.3,0.6-0.7,1-1.1,1.4c-0.4,0.4-0.9,0.6-1.4,0.7
			c-0.5,0.1-1,0.2-1.6,0.1c-0.5-0.1-1.1-0.3-1.7-0.6C400.6,200,400.2,199.6,399.8,199.2z M403.1,198.8c0.3,0.1,0.6,0.1,0.9,0.1
			c0.3,0,0.6-0.1,0.8-0.2c0.2-0.1,0.5-0.4,0.6-0.7c0.2-0.3,0.3-0.6,0.3-0.9c0-0.3-0.1-0.6-0.2-0.8c-0.1-0.2-0.3-0.5-0.6-0.7
			c-0.2-0.2-0.5-0.4-0.8-0.5c-0.3-0.2-0.6-0.3-0.9-0.4s-0.6-0.1-0.9-0.1c-0.3,0-0.6,0.1-0.8,0.2s-0.5,0.4-0.7,0.7
			c-0.2,0.3-0.3,0.6-0.3,0.9c0,0.3,0.1,0.6,0.2,0.8c0.1,0.2,0.3,0.5,0.6,0.7c0.2,0.2,0.5,0.4,0.8,0.5
			C402.5,198.5,402.8,198.7,403.1,198.8z"/>
		<path fill="#85230D" d="M413.6,187.4c0.3,0.3,0.6,0.6,0.7,1.1c0.2,0.4,0.2,0.9,0.2,1.5c0,0.6-0.3,1.3-0.7,2.1
			c-0.2,0.3-0.4,0.7-0.7,1c-0.3,0.3-0.6,0.6-0.9,0.8c-0.3,0.2-0.7,0.3-1.1,0.3c-0.4,0-0.8,0-1.2-0.2l1.1-1.9c0.4,0.1,0.8,0.1,1-0.1
			c0.3-0.2,0.5-0.5,0.7-0.8c0.3-0.5,0.4-1,0.2-1.5c-0.2-0.4-0.5-0.8-1-1l-0.9-0.5l0,0c0.3,0.4,0.4,0.9,0.3,1.3s-0.2,0.9-0.4,1.4
			c-0.3,0.5-0.6,0.9-1,1.2c-0.4,0.3-0.8,0.5-1.3,0.5c-0.5,0.1-0.9,0-1.4-0.1c-0.5-0.1-1-0.3-1.5-0.6c-0.5-0.3-0.9-0.6-1.2-0.9
			c-0.3-0.4-0.6-0.8-0.8-1.2c-0.2-0.4-0.3-0.9-0.2-1.4c0-0.5,0.2-1,0.4-1.5c0.3-0.5,0.6-0.8,0.9-1.1c0.4-0.3,0.8-0.4,1.4-0.4l0,0
			l-0.9-0.5l1-1.8l6.6,3.7C413,186.9,413.3,187.1,413.6,187.4z M409.8,188.7c0-0.3,0-0.5-0.2-0.8c-0.1-0.2-0.3-0.5-0.4-0.7
			c-0.2-0.2-0.4-0.4-0.7-0.5c-0.3-0.2-0.6-0.3-0.9-0.4c-0.3-0.1-0.6-0.1-0.8-0.1c-0.3,0-0.5,0.1-0.8,0.2c-0.2,0.1-0.4,0.4-0.6,0.7
			c-0.2,0.3-0.2,0.5-0.2,0.8c0,0.3,0.1,0.5,0.2,0.7c0.1,0.2,0.3,0.4,0.5,0.6c0.2,0.2,0.4,0.4,0.7,0.5c0.3,0.1,0.5,0.3,0.8,0.3
			c0.3,0.1,0.5,0.1,0.8,0.1s0.5-0.1,0.8-0.2c0.2-0.1,0.4-0.3,0.6-0.6C409.7,189.2,409.8,189,409.8,188.7z"/>
		<path fill="#85230D" d="M418.3,179c0.3,0.3,0.6,0.6,0.7,1.1c0.2,0.4,0.2,0.9,0.2,1.5c0,0.6-0.3,1.3-0.7,2.1
			c-0.2,0.3-0.4,0.7-0.7,1c-0.3,0.3-0.6,0.6-0.9,0.8s-0.7,0.3-1.1,0.3s-0.8,0-1.2-0.2l1.1-1.9c0.4,0.1,0.8,0.1,1-0.1
			c0.3-0.2,0.5-0.5,0.7-0.8c0.3-0.5,0.4-1,0.2-1.5c-0.2-0.4-0.5-0.8-1-1l-0.9-0.5l0,0c0.3,0.4,0.4,0.9,0.3,1.4
			c0,0.5-0.2,0.9-0.4,1.4c-0.3,0.5-0.6,0.9-1,1.2c-0.4,0.3-0.8,0.5-1.3,0.5s-0.9,0-1.4-0.1c-0.5-0.1-1-0.3-1.5-0.6
			c-0.5-0.3-0.9-0.6-1.2-0.9c-0.3-0.4-0.6-0.8-0.8-1.2c-0.2-0.4-0.3-0.9-0.2-1.4c0-0.5,0.2-1,0.4-1.5c0.3-0.5,0.6-0.8,0.9-1.1
			s0.8-0.4,1.4-0.4l0,0l-0.9-0.5l1-1.8l6.6,3.7C417.6,178.5,417.9,178.8,418.3,179z M414.5,180.4c0-0.3,0-0.5-0.1-0.8
			s-0.3-0.5-0.5-0.7s-0.4-0.4-0.7-0.5c-0.3-0.2-0.6-0.3-0.9-0.4s-0.6-0.1-0.8-0.1s-0.5,0.1-0.8,0.2c-0.2,0.1-0.4,0.4-0.6,0.7
			c-0.2,0.3-0.2,0.5-0.2,0.8c0,0.3,0.1,0.5,0.2,0.7c0.1,0.2,0.3,0.4,0.5,0.6c0.2,0.2,0.4,0.4,0.7,0.5c0.3,0.1,0.5,0.3,0.8,0.3
			c0.3,0.1,0.5,0.1,0.8,0.1s0.5-0.1,0.8-0.2c0.2-0.1,0.4-0.3,0.6-0.6C414.4,180.9,414.4,180.6,414.5,180.4z"/>
		<path fill="#85230D" d="M413.8,162.8l11.7,1.8l-1.2,2.2l-2.6-0.5l-2,3.6l1.7,2l-1.2,2.2l-7.7-9.1L413.8,162.8z M419.9,166
			l-4.2-0.8l0,0l2.9,3.2L419.9,166z"/>
		<path fill="#85230D" d="M426.8,162.5l-8.4-1.5l1.1-2l5.6,1.2l0,0l-4-4.2l1.1-1.9l5.7,6.3L426.8,162.5z"/>
		<path fill="#85230D" d="M429.2,154.1c0.4-0.1,0.8-0.5,1.1-1c0.2-0.4,0.3-0.8,0.3-1.2s-0.2-0.7-0.3-0.9l0.9-1.7
			c0.7,0.7,1.1,1.5,1.1,2.3c0.1,0.8-0.1,1.5-0.6,2.3c-0.3,0.6-0.7,1-1.1,1.4c-0.4,0.3-0.9,0.6-1.4,0.7c-0.5,0.1-1,0.1-1.6,0.1
			c-0.5-0.1-1.1-0.3-1.6-0.6c-0.5-0.3-1-0.7-1.3-1.1c-0.4-0.4-0.6-0.9-0.8-1.4c-0.2-0.5-0.2-1-0.2-1.6c0.1-0.5,0.2-1.1,0.5-1.6
			c0.3-0.6,0.7-1.1,1.2-1.4c0.5-0.3,1-0.5,1.5-0.6c0.5-0.1,1.1,0,1.7,0.1c0.6,0.2,1.1,0.4,1.6,0.7l-2.8,5.1
			C428.2,154.1,428.8,154.2,429.2,154.1z M426.7,149.9c-0.4,0.1-0.7,0.4-1,0.8c-0.2,0.3-0.3,0.6-0.3,0.9c0,0.3,0,0.5,0.1,0.7
			c0.1,0.2,0.2,0.4,0.3,0.5c0.1,0.1,0.3,0.3,0.4,0.3l1.7-3.1C427.6,149.8,427.1,149.8,426.7,149.9z"/>
	</g>
	<g>
		<path fill="#85230D" d="M290.4,206.1l-2.1,3.7l3.9,2.2l2.1-3.7l2.1,1.2l-5.4,9.7l-2.1-1.2l2.3-4.2l-3.9-2.2l-2.3,4.2l-2.1-1.2
			l5.4-9.7L290.4,206.1z"/>
		<path fill="#85230D" d="M295.6,215.1c0.4-0.4,0.9-0.6,1.4-0.8c0.5-0.1,1-0.2,1.6-0.1c0.5,0.1,1.1,0.3,1.6,0.6s1,0.7,1.4,1.1
			c0.4,0.4,0.6,0.9,0.7,1.4c0.1,0.5,0.2,1,0.1,1.6c-0.1,0.6-0.3,1.1-0.6,1.7c-0.3,0.6-0.7,1-1.1,1.4c-0.4,0.4-0.9,0.6-1.4,0.8
			c-0.5,0.1-1,0.2-1.6,0.1s-1.1-0.3-1.6-0.6c-0.6-0.3-1-0.7-1.4-1.1c-0.3-0.4-0.6-0.9-0.7-1.4c-0.1-0.5-0.2-1-0.1-1.6
			c0.1-0.5,0.3-1.1,0.6-1.7C294.8,216,295.2,215.5,295.6,215.1z M296,218.5c-0.1,0.3-0.1,0.6-0.1,0.9c0,0.3,0.1,0.6,0.2,0.8
			c0.1,0.2,0.4,0.5,0.7,0.6c0.3,0.2,0.6,0.3,0.9,0.3c0.3,0,0.6-0.1,0.8-0.2c0.3-0.1,0.5-0.3,0.7-0.6c0.2-0.2,0.4-0.5,0.5-0.8
			c0.2-0.3,0.3-0.6,0.4-0.9s0.1-0.6,0.1-0.9c0-0.3-0.1-0.6-0.2-0.8c-0.1-0.3-0.4-0.5-0.7-0.7c-0.3-0.2-0.6-0.3-0.9-0.3
			c-0.3,0-0.6,0.1-0.8,0.2c-0.2,0.1-0.5,0.3-0.7,0.6c-0.2,0.2-0.4,0.5-0.5,0.8C296.3,217.9,296.1,218.2,296,218.5z"/>
		<path fill="#85230D" d="M305.8,227.4l0.5-1l0,0c-0.5,0.3-1,0.4-1.4,0.4c-0.5,0-0.9-0.2-1.3-0.4c-0.5-0.3-0.9-0.6-1.2-0.9
			c-0.3-0.3-0.4-0.7-0.5-1s0-0.7,0.1-1.1c0.1-0.4,0.3-0.8,0.5-1.3l2.4-4.3l1.9,1.1l-2.2,4c-0.3,0.6-0.5,1.1-0.5,1.5
			c0,0.4,0.3,0.7,0.7,1c0.5,0.3,1,0.3,1.4,0.2s0.8-0.6,1.2-1.3l2.1-3.7l1.9,1.1l-3.9,7L305.8,227.4z"/>
		<path fill="#85230D" d="M311.7,228.4c0,0.2,0,0.4,0.1,0.6c0.1,0.2,0.2,0.3,0.4,0.5c0.2,0.1,0.3,0.3,0.5,0.4
			c0.1,0.1,0.3,0.1,0.5,0.2c0.2,0.1,0.3,0.1,0.5,0.1c0.2,0,0.3,0,0.5-0.1c0.1-0.1,0.3-0.2,0.4-0.4c0.2-0.3,0.1-0.6-0.2-1
			c-0.3-0.4-0.8-0.8-1.4-1.3c-0.2-0.2-0.5-0.4-0.7-0.7c-0.2-0.2-0.4-0.5-0.5-0.7c-0.1-0.3-0.2-0.5-0.2-0.8c0-0.3,0.1-0.6,0.2-0.9
			c0.3-0.5,0.5-0.8,0.9-1c0.3-0.2,0.7-0.3,1.1-0.3c0.4,0,0.8,0.1,1.2,0.2s0.8,0.3,1.2,0.5c0.4,0.2,0.7,0.5,1,0.7
			c0.3,0.3,0.6,0.6,0.8,0.9c0.2,0.3,0.3,0.7,0.3,1.1c0,0.4-0.1,0.8-0.3,1.3l-1.8-1c0.2-0.4,0.2-0.7,0-1c-0.2-0.3-0.4-0.5-0.8-0.7
			c-0.1-0.1-0.2-0.1-0.4-0.2c-0.1-0.1-0.3-0.1-0.4-0.1c-0.1,0-0.3,0-0.4,0c-0.1,0-0.2,0.1-0.3,0.3c-0.1,0.2-0.1,0.3,0,0.5
			s0.2,0.4,0.3,0.5c0.2,0.2,0.4,0.4,0.6,0.6c0.2,0.2,0.5,0.4,0.7,0.6c0.2,0.2,0.5,0.5,0.7,0.7c0.2,0.2,0.4,0.5,0.5,0.8
			c0.1,0.3,0.2,0.5,0.2,0.8s-0.1,0.6-0.3,0.9c-0.3,0.5-0.6,0.8-0.9,1c-0.4,0.2-0.7,0.3-1.1,0.3c-0.4,0-0.8,0-1.3-0.2
			c-0.4-0.1-0.8-0.3-1.2-0.5c-0.4-0.2-0.8-0.5-1.1-0.8c-0.3-0.3-0.6-0.6-0.8-1s-0.3-0.8-0.3-1.2c0-0.4,0.1-0.9,0.3-1.4l1.8,1
			C311.8,228,311.7,228.2,311.7,228.4z"/>
		<path fill="#85230D" d="M324.2,228.5l-0.7,1.3l-1.4-0.8l-1.9,3.5c-0.2,0.3-0.2,0.6-0.2,0.7c0,0.2,0.2,0.3,0.6,0.5
			c0.1,0.1,0.2,0.1,0.3,0.2c0.1,0,0.2,0.1,0.3,0.1l-0.8,1.5c-0.2-0.1-0.4-0.1-0.6-0.2c-0.2-0.1-0.4-0.2-0.6-0.3
			c-0.3-0.2-0.6-0.3-0.8-0.5c-0.2-0.2-0.4-0.4-0.6-0.6c-0.1-0.2-0.2-0.5-0.2-0.8s0.1-0.6,0.3-1l2.3-4.2l-1.2-0.7l0.7-1.3l1.2,0.7
			l1.2-2.1l1.9,1.1l-1.2,2.1L324.2,228.5z"/>
		<path fill="#85230D" d="M324.1,231c0.4-0.4,0.9-0.6,1.4-0.8c0.5-0.1,1-0.2,1.6-0.1s1.1,0.3,1.6,0.6c0.6,0.3,1,0.7,1.4,1.1
			c0.4,0.4,0.6,0.9,0.7,1.4c0.1,0.5,0.2,1,0.1,1.6c-0.1,0.6-0.3,1.1-0.6,1.7c-0.3,0.6-0.7,1-1.1,1.4c-0.4,0.4-0.9,0.6-1.4,0.8
			c-0.5,0.1-1,0.2-1.6,0.1c-0.5-0.1-1.1-0.3-1.6-0.6c-0.6-0.3-1-0.7-1.4-1.1c-0.3-0.4-0.6-0.9-0.7-1.4c-0.1-0.5-0.2-1-0.1-1.6
			s0.3-1.1,0.6-1.7C323.3,231.8,323.7,231.4,324.1,231z M324.5,234.3c-0.1,0.3-0.1,0.6-0.1,0.9c0,0.3,0.1,0.6,0.2,0.8
			c0.1,0.2,0.4,0.5,0.7,0.6s0.6,0.3,0.9,0.3s0.6-0.1,0.8-0.2s0.5-0.3,0.7-0.6c0.2-0.2,0.4-0.5,0.5-0.8c0.2-0.3,0.3-0.6,0.4-0.9
			s0.1-0.6,0.1-0.9c0-0.3-0.1-0.6-0.2-0.8c-0.1-0.3-0.4-0.5-0.7-0.7c-0.3-0.2-0.6-0.3-0.9-0.3c-0.3,0-0.6,0.1-0.8,0.2
			s-0.5,0.3-0.7,0.6s-0.4,0.5-0.5,0.8C324.8,233.7,324.6,234,324.5,234.3z"/>
		<path fill="#85230D" d="M335.3,234.6l-0.5,1l0,0c0.5-0.3,1-0.4,1.4-0.4s0.9,0.2,1.4,0.4c0.5,0.3,0.9,0.6,1.2,0.9
			c0.3,0.3,0.4,0.7,0.5,1c0.1,0.4,0,0.7-0.1,1.1s-0.3,0.8-0.5,1.3l-2.4,4.3l-1.9-1.1l2.2-4c0.3-0.6,0.5-1.1,0.5-1.5
			c0-0.4-0.3-0.7-0.7-1c-0.5-0.3-1-0.3-1.4-0.2s-0.8,0.6-1.2,1.3l-2.1,3.7l-1.9-1.1l3.9-7L335.3,234.6z"/>
		<path fill="#85230D" d="M344.6,245.9c0,0.3,0,0.6,0.2,0.8c0.1,0.2,0.3,0.5,0.5,0.7c0.2,0.2,0.5,0.4,0.8,0.6
			c0.2,0.1,0.4,0.2,0.6,0.3c0.2,0.1,0.5,0.1,0.7,0.2c0.2,0,0.5,0,0.7-0.1c0.2-0.1,0.4-0.3,0.5-0.5c0.1-0.3,0.2-0.5,0.1-0.8
			s-0.2-0.5-0.4-0.8c-0.2-0.3-0.5-0.5-0.8-0.8c-0.3-0.3-0.6-0.6-0.9-0.9c-0.3-0.3-0.6-0.6-0.9-0.9c-0.3-0.3-0.5-0.7-0.6-1
			c-0.2-0.4-0.2-0.7-0.2-1.2c0-0.4,0.1-0.8,0.4-1.3c0.3-0.5,0.6-0.9,1-1.1c0.4-0.2,0.9-0.4,1.3-0.5c0.5-0.1,1,0,1.5,0.1
			s1,0.3,1.4,0.5c0.5,0.3,1,0.6,1.4,1c0.4,0.4,0.7,0.8,0.9,1.2c0.2,0.5,0.3,0.9,0.3,1.5c0,0.5-0.2,1.1-0.5,1.6l-2.1-1.2
			c0.1-0.3,0.2-0.6,0.2-0.8c0-0.2-0.1-0.5-0.2-0.7c-0.1-0.2-0.3-0.4-0.5-0.6c-0.2-0.2-0.4-0.3-0.7-0.5c-0.2-0.1-0.4-0.2-0.5-0.2
			c-0.2-0.1-0.4-0.1-0.6-0.1c-0.2,0-0.4,0.1-0.5,0.1c-0.2,0.1-0.3,0.2-0.4,0.4c-0.1,0.2-0.2,0.4-0.1,0.5c0,0.2,0.1,0.3,0.2,0.6
			s0.4,0.5,0.7,0.8c0.3,0.3,0.7,0.7,1.3,1.2c0.2,0.1,0.4,0.3,0.6,0.6c0.3,0.3,0.5,0.6,0.7,1s0.3,0.8,0.4,1.3c0,0.5-0.1,1-0.4,1.5
			c-0.2,0.4-0.6,0.8-0.9,1.1c-0.4,0.3-0.8,0.5-1.3,0.6c-0.5,0.1-1,0.1-1.6-0.1c-0.6-0.1-1.2-0.4-1.9-0.7c-0.5-0.3-1-0.7-1.5-1.1
			s-0.8-0.9-1-1.4c-0.2-0.5-0.3-1-0.3-1.6c0-0.6,0.2-1.1,0.5-1.7l2.1,1.2C344.7,245.3,344.6,245.6,344.6,245.9z"/>
		<path fill="#85230D" d="M358,247.3l-0.7,1.3l-1.4-0.8l-1.9,3.5c-0.2,0.3-0.2,0.6-0.2,0.7c0,0.2,0.2,0.3,0.6,0.5
			c0.1,0.1,0.2,0.1,0.3,0.2c0.1,0,0.2,0.1,0.3,0.1l-0.8,1.5c-0.2-0.1-0.4-0.1-0.6-0.2c-0.2-0.1-0.4-0.2-0.6-0.3
			c-0.3-0.2-0.6-0.3-0.8-0.5c-0.2-0.2-0.4-0.4-0.6-0.6s-0.2-0.5-0.2-0.8c0-0.3,0.1-0.6,0.3-1l2.3-4.2l-1.2-0.7l0.7-1.3l1.2,0.7
			l1.2-2.1l1.9,1.1l-1.2,2.1L358,247.3z"/>
	</g>
	<g>
		<path fill="#85230D" d="M360,14.2l2-7.5l0,0l-5.3,5.7l-2.2-1.2L357.3,0l2.1,1.2l-2.1,7.5l0,0l5.3-5.7l2,1.1l-2,7.6l0,0l5.3-5.8
			l2.1,1.2l-8,8.3L360,14.2z"/>
		<path fill="#85230D" d="M377.1,10.9l-2.2,4l6-1.9l2.7,1.5l-5.9,1.8l0.9,8.2l-2.7-1.5l-0.5-6l-1.9,0.6l-1.7,3.1l-2.1-1.2l5.4-9.7
			L377.1,10.9z"/>
		<path fill="#85230D" d="M382,19.7c0.4-0.4,0.9-0.6,1.4-0.8c0.5-0.1,1-0.2,1.6-0.1s1.1,0.3,1.6,0.6c0.6,0.3,1,0.7,1.4,1.1
			c0.4,0.4,0.6,0.9,0.7,1.4c0.1,0.5,0.2,1,0.1,1.6c-0.1,0.6-0.3,1.1-0.6,1.7s-0.7,1-1.1,1.4c-0.4,0.4-0.9,0.6-1.4,0.8
			s-1,0.2-1.6,0.1c-0.5-0.1-1.1-0.3-1.7-0.6c-0.6-0.3-1-0.7-1.4-1.1c-0.4-0.4-0.6-0.9-0.7-1.4c-0.1-0.5-0.2-1-0.1-1.6
			c0.1-0.5,0.3-1.1,0.6-1.7C381.2,20.5,381.6,20.1,382,19.7z M382.5,23c-0.1,0.3-0.1,0.6-0.1,0.9c0,0.3,0.1,0.6,0.2,0.8
			c0.1,0.2,0.4,0.5,0.7,0.6c0.3,0.2,0.6,0.3,0.9,0.3c0.3,0,0.6-0.1,0.8-0.2c0.2-0.1,0.5-0.3,0.7-0.6c0.2-0.2,0.4-0.5,0.5-0.8
			c0.2-0.3,0.3-0.6,0.4-0.9s0.1-0.6,0.1-0.9c0-0.3-0.1-0.6-0.2-0.8c-0.2-0.3-0.4-0.5-0.7-0.7c-0.3-0.2-0.6-0.3-0.9-0.3
			c-0.3,0-0.6,0.1-0.8,0.2c-0.2,0.1-0.5,0.3-0.7,0.6s-0.4,0.5-0.5,0.8C382.7,22.5,382.6,22.7,382.5,23z"/>
		<path fill="#85230D" d="M390.5,28.8c0.1,0.4,0.5,0.8,1,1.1c0.4,0.2,0.8,0.3,1.2,0.3c0.4,0,0.7-0.2,0.9-0.3l1.7,0.9
			c-0.7,0.7-1.5,1.1-2.3,1.1c-0.8,0.1-1.5-0.1-2.3-0.6c-0.6-0.3-1-0.7-1.4-1.1c-0.3-0.4-0.6-0.9-0.7-1.4c-0.1-0.5-0.2-1-0.1-1.6
			c0.1-0.5,0.3-1.1,0.6-1.6c0.3-0.5,0.6-1,1.1-1.3c0.4-0.4,0.9-0.6,1.4-0.8c0.5-0.2,1-0.2,1.6-0.2c0.5,0.1,1.1,0.2,1.6,0.5
			c0.6,0.3,1.1,0.7,1.4,1.2c0.3,0.5,0.5,1,0.6,1.5c0.1,0.5,0,1.1-0.1,1.7c-0.1,0.6-0.4,1.1-0.7,1.6l-5.1-2.8
			C390.5,27.8,390.4,28.3,390.5,28.8z M394.8,26.3c-0.1-0.4-0.4-0.7-0.8-1c-0.3-0.2-0.6-0.3-0.9-0.3c-0.3,0-0.5,0-0.7,0.1
			c-0.2,0.1-0.4,0.2-0.5,0.3c-0.1,0.1-0.3,0.3-0.3,0.4l3.2,1.7C394.8,27.1,394.9,26.7,394.8,26.3z"/>
		<path fill="#85230D" d="M401.1,27.6l-0.5,1l0,0c0.5-0.3,1-0.4,1.4-0.4c0.5,0,0.9,0.2,1.4,0.4c0.5,0.3,0.9,0.6,1.2,0.9
			c0.3,0.3,0.4,0.7,0.5,1c0.1,0.4,0,0.7-0.1,1.1c-0.1,0.4-0.3,0.8-0.5,1.3l-2.4,4.3l-1.9-1.1l2.2-4c0.3-0.6,0.5-1.1,0.4-1.5
			c0-0.4-0.3-0.7-0.7-1c-0.5-0.3-1-0.3-1.4-0.2c-0.4,0.2-0.8,0.6-1.2,1.4l-2,3.7l-1.9-1.1l3.9-7.1L401.1,27.6z"/>
		<path fill="#85230D" d="M409.3,32.2l-3.9,7.1l-1.9-1.1l3.9-7.1L409.3,32.2z M408,30l0.9-1.6l1.9,1.1l-0.9,1.6L408,30z"/>
		<path fill="#85230D" d="M413.4,44.2c-0.3,0.3-0.6,0.6-1.1,0.7s-0.9,0.2-1.5,0.2c-0.6,0-1.3-0.3-2.1-0.7c-0.3-0.2-0.7-0.4-1-0.7
			c-0.3-0.3-0.6-0.6-0.8-0.9c-0.2-0.3-0.3-0.7-0.4-1.1c0-0.4,0-0.8,0.2-1.2l1.9,1.1c-0.1,0.4-0.1,0.8,0.1,1.1
			c0.2,0.3,0.5,0.5,0.8,0.7c0.5,0.3,1,0.4,1.5,0.2c0.4-0.2,0.8-0.5,1-1l0.5-0.9l0,0c-0.4,0.3-0.9,0.4-1.3,0.3s-0.9-0.2-1.4-0.4
			c-0.5-0.3-0.9-0.6-1.2-1c-0.3-0.4-0.5-0.8-0.5-1.3c-0.1-0.5,0-0.9,0.1-1.4c0.1-0.5,0.3-1,0.6-1.5c0.3-0.5,0.6-0.9,0.9-1.2
			c0.4-0.4,0.8-0.6,1.2-0.8c0.4-0.2,0.9-0.3,1.4-0.2c0.5,0,1,0.2,1.5,0.4c0.5,0.3,0.8,0.6,1.1,0.9c0.3,0.4,0.4,0.8,0.4,1.4l0,0
			l0.5-0.9l1.8,1l-3.6,6.6C413.9,43.6,413.6,43.9,413.4,44.2z M412,40.4c0.3,0,0.5,0,0.8-0.2c0.2-0.1,0.5-0.3,0.6-0.5
			c0.2-0.2,0.4-0.4,0.5-0.7c0.2-0.3,0.3-0.6,0.4-0.9s0.1-0.6,0.1-0.8s-0.1-0.5-0.2-0.8c-0.1-0.2-0.4-0.4-0.7-0.6
			c-0.3-0.2-0.5-0.2-0.8-0.2c-0.3,0-0.5,0.1-0.7,0.2c-0.2,0.1-0.4,0.3-0.6,0.5c-0.2,0.2-0.4,0.4-0.5,0.7c-0.1,0.3-0.3,0.5-0.3,0.8
			c-0.1,0.3-0.1,0.6-0.1,0.8c0,0.3,0.1,0.5,0.2,0.8c0.1,0.2,0.3,0.4,0.6,0.6C411.5,40.3,411.7,40.4,412,40.4z"/>
		<path fill="#85230D" d="M426.8,38.3l-4.4,7.9l4.8,2.6l-1,1.8l-6.9-3.8l5.4-9.7L426.8,38.3z"/>
		<path fill="#85230D" d="M432.9,45.2l-0.5,1l0,0c0.5-0.3,1-0.4,1.4-0.4c0.5,0,0.9,0.2,1.4,0.4c0.5,0.3,0.9,0.6,1.2,0.9
			c0.3,0.3,0.4,0.7,0.5,1c0.1,0.4,0,0.7-0.1,1.1c-0.1,0.4-0.3,0.8-0.5,1.3l-2.4,4.3l-1.9-1.1l2.2-4c0.3-0.6,0.5-1.1,0.4-1.5
			c0-0.4-0.3-0.7-0.7-1c-0.5-0.3-1-0.3-1.4-0.2c-0.4,0.2-0.8,0.6-1.2,1.4l-2,3.7l-1.9-1.1l3.9-7.1L432.9,45.2z"/>
	</g>
	<g>
		<path fill="#85230D" d="M295.4,27.2c-1.1,0.2-2.3-0.1-3.5-0.9c-1.3-0.8-2.1-1.7-2.4-2.8c-0.3-1.1-0.1-2.2,0.8-3.5l3.7-5.8l2.1,1.3
			l-3.7,5.8c-0.2,0.3-0.3,0.5-0.4,0.8c-0.1,0.3-0.2,0.5-0.1,0.8c0,0.3,0.1,0.6,0.3,0.8c0.2,0.3,0.5,0.5,0.9,0.8
			c0.7,0.5,1.4,0.6,1.8,0.5c0.5-0.2,1-0.6,1.4-1.3l3.7-5.8l2.1,1.3l-3.7,5.8C297.5,26.3,296.5,27,295.4,27.2z"/>
		<path fill="#85230D" d="M305.5,21.4l-6,9.4l-1.9-1.2l6-9.4L305.5,21.4z"/>
		<path fill="#85230D" d="M308.9,23.6l-6,9.4l-1.9-1.2l6-9.4L308.9,23.6z"/>
		<path fill="#85230D" d="M310.5,28.2l-0.8,1.3l0,0c0.2-0.2,0.5-0.3,0.7-0.4c0.3-0.1,0.5-0.1,0.8-0.1c0.3,0,0.5,0,0.8,0.1
			c0.3,0.1,0.5,0.2,0.8,0.3c0.1,0.1,0.2,0.2,0.4,0.3l-1.1,1.7c-0.1-0.1-0.2-0.2-0.3-0.2c-0.1-0.1-0.2-0.2-0.3-0.2
			c-0.3-0.2-0.7-0.3-1-0.4c-0.3,0-0.6,0-0.9,0.1c-0.3,0.1-0.5,0.3-0.7,0.5s-0.4,0.5-0.6,0.8l-1.9,3.1l-1.9-1.2l4.3-6.8L310.5,28.2z"
			/>
		<path fill="#85230D" d="M315.8,31.5l-4.3,6.8l-1.9-1.2l4.3-6.8L315.8,31.5z M314.6,29.3l1-1.5l1.9,1.2l-1,1.5L314.6,29.3z"/>
		<path fill="#85230D" d="M319.7,35.8c-0.3-0.2-0.6-0.3-0.9-0.3c-0.3,0-0.6,0.1-0.8,0.2c-0.3,0.1-0.5,0.3-0.7,0.5
			c-0.2,0.2-0.4,0.5-0.6,0.7c-0.2,0.2-0.3,0.5-0.4,0.8c-0.1,0.3-0.2,0.6-0.2,0.9s0,0.6,0.2,0.8c0.1,0.3,0.3,0.5,0.6,0.7
			c0.4,0.3,0.9,0.4,1.3,0.3c0.4-0.1,0.8-0.3,1.1-0.7l1.8,1.1c-0.7,0.8-1.5,1.3-2.4,1.4c-0.9,0.1-1.8-0.1-2.7-0.7
			c-0.5-0.3-0.9-0.7-1.2-1.1c-0.3-0.4-0.5-0.9-0.6-1.4c-0.1-0.5-0.1-1,0-1.5s0.3-1.1,0.6-1.6c0.3-0.5,0.7-1,1.2-1.3s0.9-0.6,1.4-0.7
			c0.5-0.1,1-0.2,1.6-0.1c0.5,0.1,1.1,0.3,1.6,0.7c0.4,0.3,0.8,0.6,1.1,0.9c0.3,0.3,0.5,0.7,0.7,1.1c0.2,0.4,0.2,0.8,0.2,1.3
			c0,0.4-0.2,0.9-0.4,1.3l-1.8-1.2C320.7,37,320.5,36.3,319.7,35.8z"/>
		<path fill="#85230D" d="M328.3,35.9l-2.2,3.5l0,0c0.5-0.2,1-0.3,1.5-0.3s0.9,0.2,1.2,0.4c0.5,0.3,0.9,0.6,1.1,1
			c0.2,0.3,0.4,0.7,0.4,1c0,0.4,0,0.7-0.2,1.1c-0.1,0.4-0.4,0.8-0.6,1.2l-2.7,4.2L325,47l2.4-3.8c0.4-0.6,0.5-1,0.5-1.4
			c0-0.4-0.2-0.7-0.7-1c-0.5-0.3-1-0.4-1.4-0.2c-0.4,0.2-0.9,0.6-1.3,1.3l-2.3,3.6l-1.9-1.2l6-9.4L328.3,35.9z"/>
		<path fill="#85230D" d="M342.8,45.1l-2.5,11.6l-2.1-1.4l0.6-2.5l-3.5-2.2l-2.1,1.6l-2.1-1.3l9.5-7.1L342.8,45.1z M339.2,50.9
			l1-4.2l0,0l-3.4,2.7L339.2,50.9z"/>
		<path fill="#85230D" d="M342.4,58l2-8.3l2,1.2l-1.5,5.6l0,0l4.4-3.7l1.9,1.2l-6.6,5.3L342.4,58z"/>
		<path fill="#85230D" d="M350.6,61c0.1,0.5,0.4,0.8,1,1.2c0.4,0.2,0.8,0.4,1.2,0.3c0.4,0,0.7-0.1,0.9-0.3l1.6,1
			c-0.8,0.6-1.6,1-2.3,1s-1.5-0.2-2.3-0.7c-0.5-0.3-1-0.7-1.3-1.2c-0.3-0.4-0.5-0.9-0.6-1.4c-0.1-0.5-0.1-1,0-1.6
			c0.1-0.5,0.3-1.1,0.7-1.6c0.3-0.5,0.7-0.9,1.2-1.3c0.4-0.3,0.9-0.6,1.4-0.7c0.5-0.1,1-0.1,1.6-0.1c0.5,0.1,1.1,0.3,1.6,0.6
			c0.6,0.4,1,0.8,1.3,1.3s0.4,1,0.5,1.6c0,0.6,0,1.1-0.2,1.7c-0.2,0.6-0.5,1.1-0.8,1.6l-4.9-3.1C350.6,60,350.5,60.5,350.6,61z
			 M355,58.7c-0.1-0.4-0.3-0.7-0.8-1c-0.3-0.2-0.6-0.3-0.8-0.3c-0.3,0-0.5,0-0.7,0.1c-0.2,0.1-0.4,0.2-0.6,0.3s-0.3,0.3-0.4,0.4
			l3,1.9C355,59.6,355.1,59.1,355,58.7z"/>
	</g>
	<ellipse fill="#B3DFFA" cx="226.5" cy="99.1" rx="4.4" ry="4.9"/>
</g>
</svg>
